<svg width="22" height="22" viewBox="0 0 22 22" fill="none" xmlns="http://www.w3.org/2000/svg">
<path d="M10.999 3.51807C9.96712 3.51807 9.12793 4.35726 9.12793 5.38913C9.12793 6.42101 9.96712 7.26015 10.999 7.26015C12.0309 7.26015 12.87 6.42096 12.87 5.38913C12.87 4.3573 12.0308 3.51807 10.999 3.51807ZM10.999 6.3251C10.4831 6.3251 10.063 5.90507 10.063 5.38913C10.063 4.8732 10.4831 4.45316 10.999 4.45316C11.5149 4.45316 11.935 4.8732 11.935 5.38913C11.935 5.90507 11.5149 6.3251 10.999 6.3251Z" fill="#A4A4A4"/>
<path d="M20.8178 9.12994C21.0762 9.12994 21.2853 8.92209 21.2853 8.6637V6.79378C21.2853 6.62897 21.1986 6.47605 21.0566 6.39202L11.9109 0.960721C11.9068 0.95796 11.9027 0.955681 11.8986 0.953401C11.3301 0.638386 10.6891 0.628831 10.0878 0.959801L0.942622 6.39202C0.800609 6.476 0.713867 6.62897 0.713867 6.79378V8.6637C0.713867 8.92209 0.922986 9.12994 1.18141 9.12994H2.58401V17.5459C1.55258 17.5459 0.713867 18.3845 0.713867 19.4158V20.8183C0.713867 21.0767 0.922986 21.2858 1.18141 21.2858H20.8178C21.0762 21.2858 21.2853 21.0767 21.2853 20.8183V19.4158C21.2853 18.3845 20.4466 17.5459 19.4152 17.5459V9.12994H20.8178ZM20.3502 19.4157V20.3507H1.64892V19.4157C1.64892 18.9002 2.06851 18.4806 2.58397 18.4806H3.05152H18.9476H19.4152C19.9306 18.4806 20.3502 18.9002 20.3502 19.4157ZM3.51906 17.5455V9.12994H5.38921V17.5455H3.51906ZM6.32426 17.5455V9.12994H9.12946V17.5455H6.32426ZM10.0645 17.5455V9.12994H11.9347V17.5455H10.0645ZM12.8697 17.5455V9.12994H15.6749V17.5455H12.8697ZM16.61 17.5455V9.12994H18.4801V17.5455H16.61ZM1.64892 8.19489V7.05847L10.5517 1.76949C10.843 1.60925 11.1525 1.60969 11.4402 1.76629L20.3502 7.05847V8.19489H1.64892Z" fill="#A4A4A4"/>
</svg>
