<svg width="46" height="41" viewBox="0 0 46 41" fill="none" xmlns="http://www.w3.org/2000/svg">
<rect width="46" height="41" rx="10" fill="#F5F7FE"/>
<path d="M35.1819 21.4322L18.2153 30.7698C17.2851 31.2817 16.1161 30.9426 15.6042 30.0125L10.4339 20.6179C9.92197 19.6877 10.261 18.5187 11.1912 18.0068L28.1577 8.66923C29.0879 8.15732 30.2569 8.49637 30.7688 9.42652L35.9391 18.8211C36.451 19.7513 36.112 20.9203 35.1819 21.4322Z" fill="#FEBC1F"/>
<path d="M34.8108 20.7593L17.8442 30.0969C16.914 30.6088 15.745 30.2698 15.2331 29.3396L10.0628 19.945C9.55088 19.0149 9.88993 17.8459 10.8201 17.334L27.7866 7.99638C28.7168 7.48447 29.8858 7.82352 30.3977 8.75367L35.568 18.1483C36.08 19.0784 35.7409 20.2474 34.8108 20.7593Z" fill="#FFD475"/>
<path d="M27.7866 7.99721L10.8201 17.3348C9.88993 17.8467 9.55088 19.0157 10.0628 19.9459L15.2331 29.3405C15.2331 29.3405 10.4154 20.1269 29.502 7.93042C28.97 7.69139 28.3369 7.69435 27.7866 7.99721Z" fill="#FEBC1F"/>
<path d="M11.5802 21.0975L12.2294 22.2772C12.3931 22.5745 12.7668 22.6829 13.0642 22.5193L30.9627 12.6688C31.2601 12.5051 31.3685 12.1314 31.2048 11.834L30.5556 10.6543C30.3919 10.3569 30.0182 10.2486 29.7208 10.4122L11.8223 20.2627C11.5249 20.4263 11.4165 20.8001 11.5802 21.0975Z" fill="#1D2943"/>
<path d="M11.4005 20.7698L12.0497 21.9495C12.2134 22.2469 12.5871 22.3553 12.8845 22.1916L30.783 12.3412C31.0804 12.1775 31.1888 11.8038 31.0251 11.5064L30.3759 10.3267C30.2122 10.0293 29.8385 9.92091 29.5411 10.0846L11.6426 19.935C11.3452 20.0987 11.2368 20.4724 11.4005 20.7698Z" fill="#4C5C75"/>
<path d="M32.111 33.2425L12.7447 33.2425C11.683 33.2425 10.8223 32.3818 10.8223 31.3201L10.8223 20.5967C10.8223 19.535 11.6829 18.6743 12.7447 18.6743L32.111 18.6743C33.1727 18.6743 34.0334 19.535 34.0334 20.5967L34.0334 31.3201C34.0334 32.3818 33.1727 33.2425 32.111 33.2425Z" fill="#5094FF"/>
<path d="M12.7447 32.4734L32.111 32.4734C33.1727 32.4734 34.0334 31.6127 34.0334 30.551L34.0334 19.8277C34.0334 18.766 33.1727 17.9053 32.111 17.9053L12.7447 17.9053C11.683 17.9053 10.8223 18.766 10.8223 19.8277L10.8223 30.551C10.8223 31.6127 11.6829 32.4734 12.7447 32.4734Z" fill="#57B3FE"/>
<path d="M12.7479 17.9048L32.1142 17.9048C33.1759 17.9048 34.0366 18.7655 34.0366 19.8272L34.0366 30.5506C34.0366 30.5506 33.8149 20.1558 11.2129 18.6733C11.5637 18.2074 12.1197 17.9048 12.7479 17.9048Z" fill="#5094FF"/>
<path d="M32.5271 29.0225V29.3209H32.5231C32.5309 29.7244 32.1943 30.0633 31.7886 30.0633L29.8381 30.0633C29.4396 30.0633 29.0957 29.7306 29.1036 29.3209H29.0996V29.0225H29.1473C29.2624 28.7327 29.5761 28.5342 29.9056 28.5342L31.7211 28.5342C32.0506 28.5342 32.3643 28.7327 32.4794 29.0225H32.5271Z" fill="#E3E7F0"/>
<path d="M31.787 29.7673L29.9015 29.7673C29.5216 29.7673 29.1626 29.5094 29.1093 29.1332C29.0443 28.6752 29.3986 28.2823 29.8441 28.2823L31.7221 28.2822C32.125 28.2822 32.5001 28.5746 32.5247 28.9767C32.5519 29.423 32.199 29.7673 31.787 29.7673Z" fill="white"/>
<path d="M26.9353 29.023V29.3214H26.9313C26.9391 29.7249 26.6025 30.0638 26.1968 30.0638L24.2463 30.0638C23.8478 30.0638 23.5039 29.7311 23.5118 29.3214H23.5078V29.023H23.5555C23.6706 28.7332 23.9843 28.5347 24.3138 28.5347L26.1293 28.5347C26.4588 28.5347 26.7725 28.7332 26.8876 29.023H26.9353Z" fill="#E3E7F0"/>
<path d="M26.1952 29.7673L24.3097 29.7673C23.9298 29.7673 23.5708 29.5094 23.5175 29.1332C23.4525 28.6752 23.8068 28.2823 24.2523 28.2823L26.1304 28.2822C26.5332 28.2822 26.9084 28.5746 26.9329 28.9767C26.9601 29.423 26.6072 29.7673 26.1952 29.7673Z" fill="white"/>
<path d="M21.3454 29.023V29.3214H21.3415C21.3492 29.7249 21.0127 30.0638 20.607 30.0638H18.6565C18.2579 30.0638 17.9141 29.7311 17.9219 29.3214H17.918V29.023H17.9656C18.0808 28.7332 18.3944 28.5347 18.7239 28.5347H20.5394C20.869 28.5347 21.1826 28.7332 21.2978 29.023H21.3454Z" fill="#E3E7F0"/>
<path d="M20.6073 29.7673L18.7218 29.7673C18.3419 29.7673 17.9829 29.5094 17.9296 29.1332C17.8646 28.6752 18.2189 28.2823 18.6644 28.2823L20.5425 28.2822C20.9453 28.2822 21.3205 28.5746 21.345 28.9767C21.3722 29.423 21.0193 29.7673 20.6073 29.7673Z" fill="white"/>
<path d="M15.7576 29.023V29.3214H15.7536C15.7613 29.7249 15.4248 30.0638 15.0191 30.0638L13.0686 30.0638C12.67 30.0638 12.3262 29.7311 12.3341 29.3214H12.3301V29.023H12.3777C12.4929 28.7332 12.8066 28.5347 13.136 28.5347L14.9516 28.5347C15.2811 28.5347 15.5948 28.7332 15.7099 29.023H15.7576Z" fill="#E3E7F0"/>
<path d="M15.0155 29.7673L13.13 29.7673C12.7501 29.7673 12.3911 29.5094 12.3378 29.1332C12.2728 28.6752 12.6271 28.2823 13.0726 28.2823L14.9507 28.2822C15.3535 28.2822 15.7287 28.5746 15.7532 28.9767C15.7804 29.423 15.4275 29.7673 15.0155 29.7673Z" fill="white"/>
<path d="M12.332 21.2929L12.332 23.0867C12.332 23.5389 12.6986 23.9054 13.1508 23.9054L16.5097 23.9054C16.9618 23.9054 17.3284 23.5388 17.3284 23.0867L17.3284 21.2929C17.3284 20.8407 16.9618 20.4741 16.5097 20.4741L13.1508 20.4741C12.6986 20.4741 12.332 20.8407 12.332 21.2929Z" fill="#FEBC1F"/>
<path d="M12.332 21.0136L12.332 22.8074C12.332 23.2596 12.6986 23.6261 13.1508 23.6261L16.5097 23.6261C16.9618 23.6261 17.3284 23.2596 17.3284 22.8074V21.0136C17.3284 20.5614 16.9618 20.1948 16.5097 20.1948L13.1508 20.1948C12.6986 20.1948 12.332 20.5614 12.332 21.0136Z" fill="#FFD475"/>
<path d="M14.7432 21.7169V20.1948H14.3543V21.7169H12.332V22.1058H13.4384V23.6261H13.8273V22.1058H15.5783V23.6261H15.9672V22.1058H17.3284V21.7169H14.7432Z" fill="#FEBC1F"/>
<path d="M32.1752 23.0584L29.9857 23.0584C29.8033 23.0584 29.6309 22.9345 29.6053 22.7539C29.5741 22.534 29.7442 22.3452 29.9581 22.3452L32.1441 22.3452C32.3375 22.3452 32.5177 22.4856 32.5295 22.6787C32.5425 22.8931 32.3731 23.0584 32.1752 23.0584Z" fill="white"/>
<path d="M32.1754 21.5325L28.3314 21.5325C28.149 21.5325 27.9766 21.4087 27.951 21.228C27.9198 21.0081 28.0899 20.8194 28.3039 20.8194L32.1443 20.8193C32.3377 20.8193 32.5179 20.9597 32.5297 21.1528C32.5427 21.3672 32.3733 21.5325 32.1754 21.5325Z" fill="white"/>
<path d="M31.5879 13.2202C32.5031 14.3946 33.2511 15.6709 33.8242 17.0452C32.9076 15.8717 32.1624 14.5938 31.5879 13.2202Z" fill="white"/>
<path d="M14.5371 17.0447C15.8708 16.0242 17.307 15.1704 18.8428 14.4907C17.51 15.5126 16.0721 16.3636 14.5371 17.0447Z" fill="white"/>
<path d="M25.5488 31.5084C27.2164 31.3112 28.8872 31.3095 30.5548 31.5085C28.8872 31.7074 27.2164 31.7058 25.5488 31.5084Z" fill="white"/>
</svg>
