<svg width="21" height="19" viewBox="0 0 21 19" fill="none" xmlns="http://www.w3.org/2000/svg">
<path d="M1.08507 14.7739H16.3983C16.5356 14.7739 16.6683 14.7258 16.7736 14.6382C16.9207 14.5151 20.2758 11.6288 20.4804 5.39844H4.03434C3.83054 11.0539 0.740637 13.7122 0.708527 13.7387C0.520276 13.8978 0.451015 14.1576 0.535706 14.3888C0.619812 14.6194 0.839001 14.7739 1.08507 14.7739Z" fill="white"/>
<path d="M19.914 1.88287H16.9842V1.2969C16.9842 0.968762 16.7264 0.710938 16.3983 0.710938C16.0701 0.710938 15.8123 0.968762 15.8123 1.2969V1.88287H12.8434V1.2969C12.8434 0.968762 12.5856 0.710938 12.2575 0.710938C11.9293 0.710938 11.6715 0.968762 11.6715 1.2969V1.88287H8.74167V1.2969C8.74167 0.968762 8.48384 0.710938 8.1557 0.710938C7.82756 0.710938 7.56974 0.968762 7.56974 1.2969V1.88287H4.63992C4.31178 1.88287 4.05396 2.14069 4.05396 2.46883V4.22672H20.5V2.46883C20.5 2.14069 20.2422 1.88287 19.914 1.88287Z" fill="white"/>
<path d="M17.5261 15.5372C17.2079 15.8021 16.8086 15.9464 16.3983 15.9464H4.05396V17.7042C4.05396 18.0281 4.31604 18.2902 4.63992 18.2902H19.914C20.2379 18.2902 20.5 18.0281 20.5 17.7042V11.1357C19.3703 13.9074 17.7938 15.3132 17.5261 15.5372Z" fill="white"/>
</svg>
