<svg width="21" height="21" viewBox="0 0 21 21" fill="none" xmlns="http://www.w3.org/2000/svg">
<g clip-path="url(#clip0_193_892)">
<path d="M1.08507 15.7734H16.3983C16.5356 15.7734 16.6683 15.7253 16.7736 15.6377C16.9207 15.5146 20.2758 12.6283 20.4804 6.39795H4.03434C3.83054 12.0534 0.740637 14.7117 0.708527 14.7382C0.520276 14.8973 0.451015 15.1571 0.535706 15.3883C0.619812 15.6189 0.839001 15.7734 1.08507 15.7734Z" fill="white"/>
<path d="M19.9138 2.88238H16.984V2.29641C16.984 1.96827 16.7262 1.71045 16.398 1.71045C16.0699 1.71045 15.8121 1.96827 15.8121 2.29641V2.88238H12.8432V2.29641C12.8432 1.96827 12.5853 1.71045 12.2572 1.71045C11.9291 1.71045 11.6712 1.96827 11.6712 2.29641V2.88238H8.74142V2.29641C8.74142 1.96827 8.4836 1.71045 8.15546 1.71045C7.82732 1.71045 7.56949 1.96827 7.56949 2.29641V2.88238H4.63967C4.31154 2.88238 4.05371 3.1402 4.05371 3.46834V5.22623H20.4998V3.46834C20.4998 3.1402 20.2419 2.88238 19.9138 2.88238Z" fill="white"/>
<path d="M17.5259 16.5362C17.2077 16.8011 16.8083 16.9454 16.398 16.9454H4.05371V18.7033C4.05371 19.0271 4.31579 19.2892 4.63967 19.2892H19.9138C20.2377 19.2892 20.4998 19.0271 20.4998 18.7033V12.1348C19.37 14.9064 17.7935 16.3122 17.5259 16.5362Z" fill="white"/>
</g>
<defs>
<clipPath id="clip0_193_892">
<rect width="20" height="20" fill="white" transform="translate(0.5 0.5)"/>
</clipPath>
</defs>
</svg>
