<svg width="16" height="17" viewBox="0 0 16 17" fill="none" xmlns="http://www.w3.org/2000/svg">
<path d="M0.336426 12.3452V13.9248C0.336426 14.1723 0.451394 14.3912 0.627988 14.5387V15.5885C0.627988 15.9876 0.952707 16.3123 1.3518 16.3123H2.33596C2.73505 16.3123 3.05977 15.9876 3.05977 15.5885V14.7279H8.46886V15.5885C8.46886 15.9876 8.79358 16.3123 9.19268 16.3123H10.1768C10.5761 16.3123 10.9008 15.9876 10.9008 15.5885V14.6417C11.1653 14.5102 11.3492 14.2398 11.3492 13.9248V12.3452C11.3492 12.2912 11.3313 12.2388 11.2984 12.1961C10.2695 10.8784 10.4416 11.0596 10.35 10.9907L9.67033 9.12072C9.42439 8.44731 8.77843 7.99493 8.06283 7.99493H3.73986C3.05014 7.99493 2.4323 8.40584 2.16611 9.04143C1.25805 11.2037 1.29839 11.0845 1.28905 11.1414L0.395051 12.1866C0.357145 12.2308 0.336426 12.2871 0.336426 12.3452ZM2.57152 15.5885C2.57152 15.7184 2.46589 15.824 2.33596 15.824H1.3518C1.22186 15.824 1.11624 15.7184 1.11624 15.5885V14.7278H1.13843C1.13883 14.7278 1.13921 14.7279 1.13961 14.7279H2.57152V15.5885ZM10.1769 15.824H9.19271C9.06277 15.824 8.95714 15.7184 8.95714 15.5884V14.7279H10.4125V15.5884C10.4125 15.7184 10.3068 15.824 10.1769 15.824ZM2.61624 9.2305C2.80649 8.77656 3.24755 8.48318 3.73986 8.48318H8.06286C8.57427 8.48318 9.03593 8.80672 9.21152 9.28781L9.81089 10.9366H8.95168C8.92258 10.2484 8.35808 9.69647 7.66293 9.69647C6.96777 9.69647 6.40327 10.2484 6.37418 10.9366H1.89743L2.61624 9.2305ZM8.46339 10.9366H6.86243C6.89086 10.5178 7.23705 10.1847 7.66289 10.1847C8.0888 10.1847 8.43496 10.5178 8.46339 10.9366ZM0.824676 12.4353L1.68905 11.4248H10.0867L10.861 12.4284V13.9248C10.861 14.0982 10.72 14.2392 10.5468 14.2395C7.74761 14.2395 10.9853 14.2397 1.13905 14.2395C0.965676 14.2392 0.824707 14.0982 0.824707 13.9248L0.824676 12.4353Z" fill="#12AF98"/>
<path d="M2.37891 13.6554H3.29585C3.60685 13.6554 3.85982 13.4024 3.85982 13.0914V12.6697C3.85982 12.3587 3.60685 12.1057 3.29585 12.1057H2.37891C2.06791 12.1057 1.81494 12.3587 1.81494 12.6697V13.0914C1.81497 13.4025 2.06791 13.6554 2.37891 13.6554ZM2.30322 12.6697C2.30322 12.6265 2.33575 12.594 2.37891 12.594H3.29585C3.339 12.594 3.37154 12.6265 3.37154 12.6697V13.0914C3.37154 13.1346 3.339 13.1671 3.29585 13.1671H2.37891C2.33575 13.1671 2.30322 13.1346 2.30322 13.0914V12.6697Z" fill="#12AF98"/>
<path d="M8.39063 13.6554H9.30757C9.61857 13.6554 9.87154 13.4024 9.87154 13.0914V12.6697C9.87154 12.3587 9.61857 12.1057 9.30757 12.1057H8.39063C8.07963 12.1057 7.82666 12.3587 7.82666 12.6697V13.0914C7.82666 13.4025 8.07963 13.6554 8.39063 13.6554ZM8.31494 12.6697C8.31494 12.6265 8.34747 12.594 8.39063 12.594H9.30757C9.35 12.594 9.38325 12.6272 9.38325 12.6697V13.0914C9.38325 13.1346 9.35072 13.1671 9.30757 13.1671H8.39063C8.34747 13.1671 8.31494 13.1346 8.31494 13.0914V12.6697Z" fill="#12AF98"/>
<path d="M5.24803 13.1243H6.43853C6.57334 13.1243 6.68266 13.015 6.68266 12.8802C6.68266 12.7454 6.57334 12.6361 6.43853 12.6361H5.24803C5.11322 12.6361 5.00391 12.7454 5.00391 12.8802C5.00391 13.015 5.11322 13.1243 5.24803 13.1243Z" fill="#12AF98"/>
<path d="M12.7732 4.17091C13.1493 4.17091 13.4553 3.86491 13.4553 3.48881V2.79075C13.4553 2.41466 13.1493 2.10866 12.7732 2.10866H11.6372C11.5024 2.10866 11.3931 2.21797 11.3931 2.35278V5.50066C11.3931 5.63547 11.5024 5.74478 11.6372 5.74478C11.772 5.74478 11.8813 5.63547 11.8813 5.50066V4.17091H12.7732ZM12.9671 2.79075V3.48881C12.9671 3.59575 12.8802 3.68266 12.7732 3.68266H11.8813V2.59694H12.7732C12.8802 2.59694 12.9671 2.68381 12.9671 2.79075Z" fill="#12AF98"/>
<path d="M12.424 16.3123C12.5588 16.3123 12.6681 16.203 12.6681 16.0682V7.16571H14.6279C15.1986 7.16571 15.6629 6.70128 15.6629 6.13053V1.7229C15.6629 1.15215 15.1986 0.687714 14.6279 0.687714H10.2201C9.64937 0.687714 9.18506 1.15215 9.18506 1.7229V6.13053C9.18506 6.70128 9.64937 7.16571 10.2201 7.16571H12.1799V16.0681C12.1799 16.203 12.2892 16.3123 12.424 16.3123ZM9.67334 6.13053V1.7229C9.67334 1.42131 9.91865 1.17599 10.2201 1.17599H14.6279C14.9293 1.17599 15.1747 1.42131 15.1747 1.7229V6.13053C15.1747 6.43212 14.9293 6.67743 14.6279 6.67743H10.2201C9.91865 6.67746 9.67334 6.43212 9.67334 6.13053Z" fill="#12AF98"/>
</svg>
