<svg width="17" height="14" viewBox="0 0 17 14" fill="none" xmlns="http://www.w3.org/2000/svg">
<path d="M15.8415 3.77694C15.7718 3.77694 15.7003 3.78688 15.6289 3.8066L14.8215 4.02904L13.983 1.98654C13.7456 1.40786 13.0433 0.937134 12.4179 0.937134H4.57085C3.9453 0.937134 3.24315 1.40786 3.00568 1.98654L2.1683 4.02625L1.37098 3.8066C1.29969 3.78694 1.22813 3.77694 1.15854 3.77694C0.776995 3.77694 0.5 4.06843 0.5 4.47011V4.94622C0.5 5.41511 0.881412 5.79652 1.3503 5.79652H1.44159L1.30629 6.12616C1.08562 6.66383 0.906105 7.57393 0.906105 8.15506V12.2128C0.906105 12.6817 1.28759 13.0631 1.75641 13.0631H2.86697C3.33587 13.0631 3.71728 12.6817 3.71728 12.2128V11.1994H13.2716V12.2128C13.2716 12.6817 13.653 13.0631 14.1219 13.0631H15.2324C15.7013 13.0631 16.0827 12.6817 16.0827 12.2128V8.15506C16.0827 7.57399 15.9032 6.66383 15.6824 6.12616L15.5471 5.79652H15.6497C16.1185 5.79652 16.5 5.41511 16.5 4.94622V4.47011C16.5 4.06843 16.2231 3.77694 15.8415 3.77694ZM2.77807 5.33463L4.04638 2.24517C4.18848 1.89907 4.61085 1.61588 4.98498 1.61588H12.0039C12.378 1.61588 12.8004 1.89907 12.9424 2.24517L14.2107 5.33463C14.3528 5.68074 14.163 5.96393 13.7888 5.96393H3.20002C2.82589 5.96393 2.63603 5.68074 2.77807 5.33463ZM5.60944 9.24236C5.60944 9.42943 5.45639 9.58248 5.26932 9.58248H2.8599C2.67283 9.58248 2.51978 9.42943 2.51978 9.24236V8.08601C2.51978 7.89895 2.67283 7.74589 2.8599 7.74589H5.26932C5.45639 7.74589 5.60944 7.89895 5.60944 8.08601V9.24236ZM14.4462 9.24236C14.4462 9.42943 14.2932 9.58248 14.1061 9.58248H11.6967C11.5097 9.58248 11.3566 9.42943 11.3566 9.24236V8.08601C11.3566 7.89895 11.5097 7.74589 11.6967 7.74589H14.1061C14.2932 7.74589 14.4462 7.89895 14.4462 8.08601V9.24236Z" fill="#12AF98"/>
</svg>
