<svg width="46" height="47" viewBox="0 0 46 47" fill="none" xmlns="http://www.w3.org/2000/svg">
<g clip-path="url(#clip0_176_590)">
<path fill-rule="evenodd" clip-rule="evenodd" d="M5.0298 19.0721C5.74618 19.132 7.07268 17.4179 6.63412 16.7962C5.97257 16.814 5.2714 17.8067 5.03595 18.3983C4.87695 18.7907 4.90687 18.7724 5.0298 19.0721ZM6.75802 30.9798C7.17957 30.3445 5.8294 28.6599 5.11418 28.7324C4.8829 29.1134 5.19403 29.6099 5.4925 30.0344C5.82749 30.5067 6.25871 30.9782 6.75802 30.9798ZM8.94024 29.4387C9.21788 29.5445 14.0907 29.574 14.3429 29.5116L13.867 26.6824C13.64 24.1098 13.6052 23.5747 13.8171 20.9681L14.2494 18.1249C13.7311 18.0092 11.8678 18.194 11.0979 18.2007C10.8693 18.2027 10.6886 18.1682 10.4661 18.1762C10.0631 18.1857 9.53335 18.1423 9.17371 18.2898C8.96846 18.2074 8.31935 18.2732 8.28347 18.2976C7.06065 20.1732 6.7786 22.3172 6.7863 23.8872C6.79985 25.4391 7.34907 28.3999 8.44742 29.4911L8.95834 29.4446L8.94024 29.4387ZM25.7015 28.2809C26.3606 27.9744 26.1182 27.0802 26.1443 26.6288L26.142 21.5457C26.1214 21.2511 26.089 20.9927 26.0925 20.6979C26.0955 20.355 26.142 20.1741 26.0851 19.8558C25.9575 19.0147 25.0376 19.0769 24.5988 19.1109C22.4587 19.274 20.7676 18.5068 20.8654 20.058L20.9259 27.6792C20.8987 28.6901 21.877 28.4348 22.3042 28.4491C22.9721 28.4733 23.381 28.4457 24.0003 28.4102C24.6737 28.3802 25.3661 28.4403 25.7136 28.2808L25.7015 28.2809ZM38.5774 16.1729C38.4446 16.8177 39.7878 18.388 40.4802 18.4601C40.7475 18.0668 40.1946 17.44 39.9028 17.0937C39.5867 16.7114 39.0699 16.0843 38.5834 16.1788L38.5774 16.1729ZM32.3992 30.6164C33.2432 30.8255 33.5851 30.7082 34.4961 29.6355C35.8119 28.0779 36.4299 25.1309 36.27 23.3637C36.0773 21.2659 35.8034 18.8381 33.8877 17.1465C33.5179 16.8188 33.2147 16.5448 32.8361 16.5902C32.6018 16.6224 32.0429 16.6814 31.8515 16.8034C31.4598 16.7286 30.0006 17.0242 29.6041 17.0878C29.1415 17.158 27.6873 17.3392 27.3637 17.4744C27.9466 18.7867 28.0963 20.7705 28.2649 22.1647C28.2973 22.4351 28.2694 22.682 28.2898 22.9525C28.3584 23.9144 28.2796 25.9122 28.1551 26.8157C27.9286 28.4298 27.7212 28.7866 27.5086 29.9374L32.1646 30.6124C32.2188 30.6179 32.2669 30.6175 32.315 30.6171L32.4052 30.6103L32.3992 30.6164ZM38.7073 31.0422C39.2073 31.1281 39.7428 30.4496 40.0521 30.0499C40.3377 29.6864 40.8318 29.0986 40.5699 28.7219C39.8788 28.8062 38.5633 30.3998 38.7073 31.0422ZM28.5572 31.5284L23.9709 31.9356C23.7965 31.9431 23.6644 31.9683 23.4959 31.9578C20 31.8621 21.2479 32.17 20.2682 32.2688C20.0278 32.295 19.6184 32.2505 19.3164 32.1088C18.646 31.8079 17.5277 31.8778 16.5649 31.8382C16.276 31.8287 15.8964 31.7538 15.6076 31.7443C15.3007 31.7289 14.9057 31.961 14.6535 32.0234C14.3714 32.092 13.9448 32.1499 13.6984 32.1701C12.4059 32.2717 11.2572 32.2998 9.99325 32.2267C8.86775 32.1584 7.5756 32.296 6.2876 31.5313C4.98151 30.7608 4.06548 29.1927 3.70599 27.9807C3.25966 26.4687 3.25858 25.6567 3.20402 24.2314C3.14004 22.4153 3.17536 18.8838 5.44282 16.7705C6.32601 15.9567 7.12994 15.709 8.20564 15.5853C9.27538 15.4676 12.0113 15.3293 12.9143 15.4056C13.4621 15.4549 14.1721 15.4727 14.7753 15.6599C15.9516 16.0286 15.1311 15.7591 16.6288 15.7399C16.9416 15.7372 17.2117 15.6686 17.5305 15.6718C19.624 15.6775 19.3536 15.0182 20.3846 15.2919C20.7404 15.391 20.874 15.5342 21.2832 15.5547C22.6192 15.6151 24.1461 15.4935 25.9457 15.604C26.3068 15.6249 27.5707 15.698 27.8423 15.7979C27.6564 15.8657 25.977 15.7421 25.7904 15.7257L19.6005 15.7379C17.4365 15.9253 15.7161 15.9284 13.4157 16.3396C12.767 16.4536 11.9734 16.5087 11.3796 16.7004L16.3342 17.1321C18.0487 17.1471 19.6015 17.2297 21.3632 17.1361L24.43 17.0009C24.6706 16.9988 24.8206 16.9553 25.0671 16.9472C25.8189 16.9225 30.7713 16.4219 31.4011 16.2058C30.9608 16.0713 30.347 16.0526 29.9316 16.0142C29.9088 15.4669 29.1375 14.6255 29.2629 13.8304C30.1366 13.3174 30.6362 14.7267 30.8036 15.2967L32.7755 15.159C33.4548 15.0989 34.1529 15.1409 34.8386 15.1349C36.1498 15.1114 37.2917 14.981 38.9172 15.827C41.4554 17.1522 42.3338 19.9237 42.3504 22.5163C42.3534 22.8651 42.3685 23.2139 42.3717 23.5748C42.3968 26.45 42.1485 29.7006 39.0592 31.388C37.4427 32.2685 36.3047 32.1521 34.9933 32.1516C34.1211 32.1533 32.8703 32.2124 31.9792 32.1119C31.6359 32.0728 31.3049 32.0577 30.956 32.0487C30.8047 32.6396 30.3177 34.0455 29.441 33.5418C29.3018 32.749 30.0523 31.9002 30.0714 31.3346C30.414 31.3015 31.3999 31.2207 31.6998 31.1218C30.8554 30.8645 27.5018 30.527 26.6712 30.4741C24.2816 30.3207 21.4349 30.1592 19.1023 30.324C17.4249 30.441 15.7768 30.4555 14.022 30.6513C13.5832 30.6973 13.1926 30.7428 12.7479 30.7949C12.3152 30.8468 11.9124 30.8684 11.5223 30.9741C11.7691 30.9899 12.2329 31.0641 12.5341 31.1096L19.4207 31.6627L23.181 31.7199C24.1433 31.6994 24.2341 31.7648 25.3524 31.6948C25.5448 31.6811 25.6889 31.6558 25.8814 31.6541L28.4187 31.5115C28.5451 31.5164 28.4728 31.505 28.5692 31.5282L28.5572 31.5284Z" fill="#B3B3B3"/>
<path fill-rule="evenodd" clip-rule="evenodd" d="M27.8419 15.8099C27.9686 15.8509 28.0591 15.8802 28.1735 15.8852L28.4318 15.8529C28.3414 15.8236 28.1966 15.7767 28.1243 15.7653C27.7509 15.7205 28.0457 15.7239 27.8418 15.7979L27.8419 15.8099ZM28.4259 15.8589C28.7275 15.9525 28.7274 15.9405 28.9435 15.8905C28.6239 15.8031 28.6357 15.7789 28.4259 15.8589ZM29.4071 15.9406C29.0754 15.8412 29.1599 15.8766 28.9678 15.9143L29.4071 15.9406ZM28.5507 31.5224C28.7136 31.5751 28.4856 31.6493 29.0797 31.4817L28.7727 31.4543C28.6765 31.4671 28.6586 31.4853 28.5507 31.5224ZM29.0976 31.4634C29.363 31.5453 29.2545 31.5222 29.5484 31.4294C29.3737 31.4009 29.5782 31.387 29.3017 31.4135C29.1454 31.4269 29.2596 31.4199 29.0976 31.4634ZM27.836 15.816C27.5584 15.7222 26.2945 15.6491 25.9394 15.6221C24.1457 15.5055 22.6188 15.6272 21.2769 15.5728C20.8617 15.5584 20.7341 15.4091 20.3783 15.31C19.3472 15.0363 19.6177 15.6956 17.5242 15.6899C17.2053 15.6867 16.9352 15.7553 16.6225 15.758C15.1307 15.7711 15.9512 16.0406 14.769 15.678C14.1658 15.4908 13.4678 15.4729 12.9079 15.4237C11.9989 15.3414 9.26895 15.4737 8.19931 15.6034C7.1236 15.7271 6.31361 15.9688 5.43648 16.7886C3.16892 18.8899 3.12764 22.4274 3.19769 24.2495C3.24629 25.6808 3.25333 26.4868 3.69966 27.9988C4.05915 29.2108 4.96922 30.7849 6.28127 31.5494C7.57523 32.3081 8.86141 32.1765 9.98692 32.2448C11.2508 32.3179 12.3935 32.2838 13.692 32.1882C13.9385 32.168 14.3651 32.1101 14.6472 32.0415C14.8993 31.9791 15.2943 31.747 15.6012 31.7624C15.8901 31.7719 16.2697 31.8468 16.5585 31.8562C17.5214 31.8959 18.6397 31.8259 19.31 32.1269C19.618 32.2625 20.0275 32.307 20.2619 32.2869C21.2416 32.1881 19.9876 31.8743 23.4895 31.9759C23.664 31.9804 23.7902 31.9612 23.9646 31.9537L28.5509 31.5464C28.4665 31.5231 28.5327 31.5286 28.4003 31.5297L25.863 31.6723C25.6705 31.674 25.5264 31.6993 25.334 31.713C24.2157 31.783 24.125 31.7297 23.1626 31.7381L19.4024 31.6809L12.5157 31.1278C12.2086 31.0883 11.7387 31.0083 11.5039 30.9923C11.894 30.8866 12.2908 30.859 12.7295 30.8131C13.1683 30.7671 13.5589 30.7216 14.0036 30.6695C15.7584 30.4737 17.4066 30.4592 19.0839 30.3422C21.4285 30.1773 24.2692 30.3328 26.6528 30.4923C27.4714 30.5453 30.8311 30.8888 31.6814 31.14C31.3816 31.2509 30.3957 31.3197 30.0531 31.3528C30.034 31.9184 29.2834 32.7672 29.4227 33.56C30.3053 34.0576 30.7923 32.6517 30.9376 32.0669C31.2805 32.0699 31.6176 32.091 31.9608 32.1301C32.852 32.2306 34.1027 32.1715 34.9749 32.1698C36.2863 32.1703 37.4303 32.2806 39.0408 31.4062C42.1362 29.7248 42.3725 26.4743 42.3533 23.593C42.3502 23.2321 42.3351 22.8833 42.332 22.5345C42.3214 19.9358 41.443 17.1643 38.8989 15.8452C37.2672 14.9933 36.1315 15.1296 34.8203 15.1531C34.1286 15.1652 33.4364 15.1171 32.7572 15.1772L30.7853 15.3149C30.6179 14.7449 30.1183 13.3356 29.2445 13.8486C29.1191 14.6437 29.8905 15.4972 29.9132 16.0324C30.3287 16.0708 30.9424 16.0895 31.3827 16.224C30.753 16.4401 25.8005 16.9407 25.0488 16.9654C24.8022 16.9735 24.6522 17.017 24.4116 17.0191L21.3448 17.1543C19.5831 17.248 18.0363 17.1593 16.3158 17.1503L11.3612 16.7186C11.9551 16.5269 12.7486 16.4718 13.3973 16.3578C15.6977 15.9466 17.4181 15.9435 19.5821 15.7561L25.772 15.7439C25.9586 15.7603 27.644 15.8778 27.824 15.8161L27.836 15.816ZM31.1802 32.2934C30.9851 32.6861 30.9286 33.1077 30.5772 33.5018C30.0291 34.1202 28.3537 34.4537 29.6354 31.7415C29.3043 31.7143 28.9681 31.7894 28.6315 31.8285L21.7531 32.2137C20.6349 32.2957 20.6682 32.6624 19.7466 32.5201C19.3851 32.4631 19.0463 32.2375 18.7391 32.186C18.4379 32.1405 18.1009 32.1315 17.7884 32.1583C17.1511 32.2 15.7771 31.9233 15.3034 32.1019C13.7504 32.675 11.4698 32.5927 9.90492 32.4982L8.89992 32.4528C7.80422 32.3542 7.05846 32.3728 5.98146 31.6603C3.3859 29.9567 2.9713 26.5675 2.94818 23.9209C2.92517 21.2863 3.2804 17.8783 5.8458 16.1293C7.1375 15.2518 8.39544 15.3309 9.8081 15.2163C10.9984 15.1216 12.496 15.0904 13.7242 15.212C14.7658 15.3171 14.5497 15.3672 15.2613 15.5654C15.5869 15.6588 17.1727 15.3923 17.6963 15.4177C19.3993 15.493 19.4281 14.6506 20.6594 15.121C21.3474 15.3797 21.9121 15.2905 22.6159 15.2903C22.9768 15.2872 23.2591 15.2426 23.6203 15.2635L28.5437 15.5692C28.8808 15.6023 29.1761 15.6659 29.4947 15.633C29.2375 15.1179 28.5816 13.71 29.3136 13.4991C30.2977 13.2137 30.6868 14.3713 31.0357 15.06C31.8578 14.8302 36.4895 14.8016 37.2187 14.9456C41.0089 15.6763 42.6205 19.0609 42.609 22.5681L42.6525 24.1017C42.6366 24.3485 42.6192 24.4148 42.6331 24.6313C42.6407 24.8177 42.6721 24.9678 42.6618 25.1604C42.5147 27.604 41.683 30.186 39.3246 31.5301C38.6482 31.915 37.9108 32.2042 37.2622 32.3182C36.5234 32.451 32.0484 32.5143 31.1862 32.2873L31.1802 32.2934Z" fill="#B3B3B3"/>
<path fill-rule="evenodd" clip-rule="evenodd" d="M27.8421 15.8097C28.04 15.7298 27.7451 15.7263 28.1247 15.7772C28.197 15.7886 28.3417 15.8235 28.4324 15.8649L28.1739 15.8972C28.0535 15.8861 27.969 15.8628 27.8423 15.8217L27.8421 15.8097Z" fill="#B3B3B3"/>
<path fill-rule="evenodd" clip-rule="evenodd" d="M28.5509 31.5222C28.6588 31.4852 28.6767 31.467 28.7729 31.4542L29.08 31.4817C28.4799 31.6552 28.7138 31.575 28.5509 31.5222Z" fill="#B3B3B3"/>
<path fill-rule="evenodd" clip-rule="evenodd" d="M28.4248 15.8588C28.6347 15.7788 28.6169 15.809 28.9426 15.8905C28.7264 15.9405 28.7265 15.9525 28.4248 15.8588Z" fill="#B3B3B3"/>
<path fill-rule="evenodd" clip-rule="evenodd" d="M29.098 31.4633C29.2601 31.4198 29.1458 31.4268 29.3022 31.4134C29.5788 31.387 29.3743 31.4008 29.549 31.4294C29.255 31.5221 29.3636 31.5453 29.098 31.4633Z" fill="#B3B3B3"/>
<path fill-rule="evenodd" clip-rule="evenodd" d="M28.9673 15.9142C29.1535 15.8705 29.069 15.8471 29.4068 15.9405L28.9673 15.9142Z" fill="#B3B3B3"/>
<path fill-rule="evenodd" clip-rule="evenodd" d="M5.0298 19.0721C5.74618 19.132 7.07268 17.4179 6.63412 16.7962C5.97257 16.814 5.2714 17.8067 5.03595 18.3983C4.87695 18.7907 4.90687 18.7724 5.0298 19.0721ZM6.75802 30.9798C7.17957 30.3445 5.8294 28.6599 5.11418 28.7324C4.8829 29.1134 5.19403 29.6099 5.4925 30.0344C5.82749 30.5067 6.25871 30.9782 6.75802 30.9798ZM8.94024 29.4387C9.21788 29.5445 14.0907 29.574 14.3429 29.5116L13.867 26.6824C13.64 24.1098 13.6052 23.5747 13.8171 20.9681L14.2494 18.1249C13.7311 18.0092 11.8678 18.194 11.0979 18.2007C10.8693 18.2027 10.6886 18.1682 10.4661 18.1762C10.0631 18.1857 9.53335 18.1423 9.17371 18.2898C8.96846 18.2074 8.31935 18.2732 8.28347 18.2976C7.06065 20.1732 6.7786 22.3172 6.7863 23.8872C6.79985 25.4391 7.34907 28.3999 8.44742 29.4911L8.95834 29.4446L8.94024 29.4387ZM25.7015 28.2809C26.3606 27.9744 26.1182 27.0802 26.1443 26.6288L26.142 21.5457C26.1214 21.2511 26.089 20.9927 26.0925 20.6979C26.0955 20.355 26.142 20.1741 26.0851 19.8558C25.9575 19.0147 25.0376 19.0769 24.5988 19.1109C22.4587 19.274 20.7676 18.5068 20.8654 20.058L20.9259 27.6792C20.8987 28.6901 21.877 28.4348 22.3042 28.4491C22.9721 28.4733 23.381 28.4457 24.0003 28.4102C24.6737 28.3802 25.3661 28.4403 25.7136 28.2808L25.7015 28.2809ZM38.5774 16.1729C38.4446 16.8177 39.7878 18.388 40.4802 18.4601C40.7475 18.0668 40.1946 17.44 39.9028 17.0937C39.5867 16.7114 39.0699 16.0843 38.5834 16.1788L38.5774 16.1729ZM32.3992 30.6164C33.2432 30.8255 33.5851 30.7082 34.4961 29.6355C35.8119 28.0779 36.4299 25.1309 36.27 23.3637C36.0773 21.2659 35.8034 18.8381 33.8877 17.1465C33.5179 16.8188 33.2147 16.5448 32.8361 16.5902C32.6018 16.6224 32.0429 16.6814 31.8515 16.8034C31.4598 16.7286 30.0006 17.0242 29.6041 17.0878C29.1415 17.158 27.6873 17.3392 27.3637 17.4744C27.9466 18.7867 28.0963 20.7705 28.2649 22.1647C28.2973 22.4351 28.2694 22.682 28.2898 22.9525C28.3584 23.9144 28.2796 25.9122 28.1551 26.8157C27.9286 28.4298 27.7212 28.7866 27.5086 29.9374L32.1646 30.6124C32.2188 30.6179 32.2669 30.6175 32.315 30.6171L32.4052 30.6103L32.3992 30.6164ZM38.7073 31.0422C39.2073 31.1281 39.7428 30.4496 40.0521 30.0499C40.3377 29.6864 40.8318 29.0986 40.5699 28.7219C39.8788 28.8062 38.5633 30.3998 38.7073 31.0422ZM28.5572 31.5284L23.9709 31.9356C23.7965 31.9431 23.6644 31.9683 23.4959 31.9578C20 31.8621 21.2479 32.17 20.2682 32.2688C20.0278 32.295 19.6184 32.2505 19.3164 32.1088C18.646 31.8079 17.5277 31.8778 16.5649 31.8382C16.276 31.8287 15.8964 31.7538 15.6076 31.7443C15.3007 31.7289 14.9057 31.961 14.6535 32.0234C14.3714 32.092 13.9448 32.1499 13.6984 32.1701C12.4059 32.2717 11.2572 32.2998 9.99325 32.2267C8.86775 32.1584 7.5756 32.296 6.2876 31.5313C4.98151 30.7608 4.06548 29.1927 3.70599 27.9807C3.25966 26.4687 3.25858 25.6567 3.20402 24.2314C3.14004 22.4153 3.17536 18.8838 5.44282 16.7705C6.32601 15.9567 7.12994 15.709 8.20564 15.5853C9.27538 15.4676 12.0113 15.3293 12.9143 15.4056C13.4621 15.4549 14.1721 15.4727 14.7753 15.6599C15.9516 16.0286 15.1311 15.7591 16.6288 15.7399C16.9416 15.7372 17.2117 15.6686 17.5305 15.6718C19.624 15.6775 19.3536 15.0182 20.3846 15.2919C20.7404 15.391 20.874 15.5342 21.2832 15.5547C22.6192 15.6151 24.1461 15.4935 25.9457 15.604C26.3068 15.6249 27.5707 15.698 27.8423 15.7979C27.6564 15.8657 25.977 15.7421 25.7904 15.7257L19.6005 15.7379C17.4365 15.9253 15.7161 15.9284 13.4157 16.3396C12.767 16.4536 11.9734 16.5087 11.3796 16.7004L16.3342 17.1321C18.0487 17.1471 19.6015 17.2297 21.3632 17.1361L24.43 17.0009C24.6706 16.9988 24.8206 16.9553 25.0671 16.9472C25.8189 16.9225 30.7713 16.4219 31.4011 16.2058C30.9608 16.0713 30.347 16.0526 29.9316 16.0142C29.9088 15.4669 29.1375 14.6255 29.2629 13.8304C30.1366 13.3174 30.6362 14.7267 30.8036 15.2967L32.7755 15.159C33.4548 15.0989 34.1529 15.1409 34.8386 15.1349C36.1498 15.1114 37.2917 14.981 38.9172 15.827C41.4554 17.1522 42.3338 19.9237 42.3504 22.5163C42.3534 22.8651 42.3685 23.2139 42.3717 23.5748C42.3968 26.45 42.1485 29.7006 39.0592 31.388C37.4427 32.2685 36.3047 32.1521 34.9933 32.1516C34.1211 32.1533 32.8703 32.2124 31.9792 32.1119C31.6359 32.0728 31.3049 32.0577 30.956 32.0487C30.8047 32.6396 30.3177 34.0455 29.441 33.5418C29.3018 32.749 30.0523 31.9002 30.0714 31.3346C30.414 31.3015 31.3999 31.2207 31.6998 31.1218C30.8554 30.8645 27.5018 30.527 26.6712 30.4741C24.2816 30.3207 21.4349 30.1592 19.1023 30.324C17.4249 30.441 15.7768 30.4555 14.022 30.6513C13.5832 30.6973 13.1926 30.7428 12.7479 30.7949C12.3152 30.8468 11.9124 30.8684 11.5223 30.9741C11.7691 30.9899 12.2329 31.0641 12.5341 31.1096L19.4207 31.6627L23.181 31.7199C24.1433 31.6994 24.2341 31.7648 25.3524 31.6948C25.5448 31.6811 25.6889 31.6558 25.8814 31.6541L28.4187 31.5115C28.5451 31.5164 28.4728 31.505 28.5692 31.5282L28.5572 31.5284Z" fill="#B3B3B3"/>
<path fill-rule="evenodd" clip-rule="evenodd" d="M27.8419 15.8099C27.9686 15.8509 28.0591 15.8802 28.1735 15.8852L28.4318 15.8529C28.3414 15.8236 28.1966 15.7767 28.1243 15.7653C27.7509 15.7205 28.0457 15.7239 27.8418 15.7979L27.8419 15.8099ZM28.4259 15.8589C28.7275 15.9525 28.7274 15.9405 28.9435 15.8905C28.6239 15.8031 28.6357 15.7789 28.4259 15.8589ZM29.4071 15.9406C29.0754 15.8412 29.1599 15.8766 28.9678 15.9143L29.4071 15.9406ZM28.5507 31.5224C28.7136 31.5751 28.4856 31.6493 29.0797 31.4817L28.7727 31.4543C28.6765 31.4671 28.6586 31.4853 28.5507 31.5224ZM29.0976 31.4634C29.363 31.5453 29.2545 31.5222 29.5484 31.4294C29.3737 31.4009 29.5782 31.387 29.3017 31.4135C29.1454 31.4269 29.2596 31.4199 29.0976 31.4634ZM27.836 15.816C27.5584 15.7222 26.2945 15.6491 25.9394 15.6221C24.1457 15.5055 22.6188 15.6272 21.2769 15.5728C20.8617 15.5584 20.7341 15.4091 20.3783 15.31C19.3472 15.0363 19.6177 15.6956 17.5242 15.6899C17.2053 15.6867 16.9352 15.7553 16.6225 15.758C15.1307 15.7711 15.9512 16.0406 14.769 15.678C14.1658 15.4908 13.4678 15.4729 12.9079 15.4237C11.9989 15.3414 9.26895 15.4737 8.19931 15.6034C7.1236 15.7271 6.31361 15.9688 5.43648 16.7886C3.16892 18.8899 3.12764 22.4274 3.19769 24.2495C3.24629 25.6808 3.25333 26.4868 3.69966 27.9988C4.05915 29.2108 4.96922 30.7849 6.28127 31.5494C7.57523 32.3081 8.86141 32.1765 9.98692 32.2448C11.2508 32.3179 12.3935 32.2838 13.692 32.1882C13.9385 32.168 14.3651 32.1101 14.6472 32.0415C14.8993 31.9791 15.2943 31.747 15.6012 31.7624C15.8901 31.7719 16.2697 31.8468 16.5585 31.8562C17.5214 31.8959 18.6397 31.8259 19.31 32.1269C19.618 32.2625 20.0275 32.307 20.2619 32.2869C21.2416 32.1881 19.9876 31.8743 23.4895 31.9759C23.664 31.9804 23.7902 31.9612 23.9646 31.9537L28.5509 31.5464C28.4665 31.5231 28.5327 31.5286 28.4003 31.5297L25.863 31.6723C25.6705 31.674 25.5264 31.6993 25.334 31.713C24.2157 31.783 24.125 31.7297 23.1626 31.7381L19.4024 31.6809L12.5157 31.1278C12.2086 31.0883 11.7387 31.0083 11.5039 30.9923C11.894 30.8866 12.2908 30.859 12.7295 30.8131C13.1683 30.7671 13.5589 30.7216 14.0036 30.6695C15.7584 30.4737 17.4066 30.4592 19.0839 30.3422C21.4285 30.1773 24.2692 30.3328 26.6528 30.4923C27.4714 30.5453 30.8311 30.8888 31.6814 31.14C31.3816 31.2509 30.3957 31.3197 30.0531 31.3528C30.034 31.9184 29.2834 32.7672 29.4227 33.56C30.3053 34.0576 30.7923 32.6517 30.9376 32.0669C31.2805 32.0699 31.6176 32.091 31.9608 32.1301C32.852 32.2306 34.1027 32.1715 34.9749 32.1698C36.2863 32.1703 37.4303 32.2806 39.0408 31.4062C42.1362 29.7248 42.3725 26.4743 42.3533 23.593C42.3502 23.2321 42.3351 22.8833 42.332 22.5345C42.3214 19.9358 41.443 17.1643 38.8989 15.8452C37.2672 14.9933 36.1315 15.1296 34.8203 15.1531C34.1286 15.1652 33.4364 15.1171 32.7572 15.1772L30.7853 15.3149C30.6179 14.7449 30.1183 13.3356 29.2445 13.8486C29.1191 14.6437 29.8905 15.4972 29.9132 16.0324C30.3287 16.0708 30.9424 16.0895 31.3827 16.224C30.753 16.4401 25.8005 16.9407 25.0488 16.9654C24.8022 16.9735 24.6522 17.017 24.4116 17.0191L21.3448 17.1543C19.5831 17.248 18.0363 17.1593 16.3158 17.1503L11.3612 16.7186C11.9551 16.5269 12.7486 16.4718 13.3973 16.3578C15.6977 15.9466 17.4181 15.9435 19.5821 15.7561L25.772 15.7439C25.9586 15.7603 27.644 15.8778 27.824 15.8161L27.836 15.816ZM31.1802 32.2934C30.9851 32.6861 30.9286 33.1077 30.5772 33.5018C30.0291 34.1202 28.3537 34.4537 29.6354 31.7415C29.3043 31.7143 28.9681 31.7894 28.6315 31.8285L21.7531 32.2137C20.6349 32.2957 20.6682 32.6624 19.7466 32.5201C19.3851 32.4631 19.0463 32.2375 18.7391 32.186C18.4379 32.1405 18.1009 32.1315 17.7884 32.1583C17.1511 32.2 15.7771 31.9233 15.3034 32.1019C13.7504 32.675 11.4698 32.5927 9.90492 32.4982L8.89992 32.4528C7.80422 32.3542 7.05846 32.3728 5.98146 31.6603C3.3859 29.9567 2.9713 26.5675 2.94818 23.9209C2.92517 21.2863 3.2804 17.8783 5.8458 16.1293C7.1375 15.2518 8.39544 15.3309 9.8081 15.2163C10.9984 15.1216 12.496 15.0904 13.7242 15.212C14.7658 15.3171 14.5497 15.3672 15.2613 15.5654C15.5869 15.6588 17.1727 15.3923 17.6963 15.4177C19.3993 15.493 19.4281 14.6506 20.6594 15.121C21.3474 15.3797 21.9121 15.2905 22.6159 15.2903C22.9768 15.2872 23.2591 15.2426 23.6203 15.2635L28.5437 15.5692C28.8808 15.6023 29.1761 15.6659 29.4947 15.633C29.2375 15.1179 28.5816 13.71 29.3136 13.4991C30.2977 13.2137 30.6868 14.3713 31.0357 15.06C31.8578 14.8302 36.4895 14.8016 37.2187 14.9456C41.0089 15.6763 42.6205 19.0609 42.609 22.5681L42.6525 24.1017C42.6366 24.3485 42.6192 24.4148 42.6331 24.6313C42.6407 24.8177 42.6721 24.9678 42.6618 25.1604C42.5147 27.604 41.683 30.186 39.3246 31.5301C38.6482 31.915 37.9108 32.2042 37.2622 32.3182C36.5234 32.451 32.0484 32.5143 31.1862 32.2873L31.1802 32.2934Z" fill="#B3B3B3"/>
<path fill-rule="evenodd" clip-rule="evenodd" d="M27.8421 15.8097C28.04 15.7298 27.7451 15.7263 28.1247 15.7772C28.197 15.7886 28.3417 15.8235 28.4324 15.8649L28.1739 15.8972C28.0535 15.8861 27.969 15.8628 27.8423 15.8217L27.8421 15.8097Z" fill="#B3B3B3"/>
<path fill-rule="evenodd" clip-rule="evenodd" d="M28.5509 31.5222C28.6588 31.4852 28.6767 31.467 28.7729 31.4542L29.08 31.4817C28.4799 31.6552 28.7138 31.575 28.5509 31.5222Z" fill="#B3B3B3"/>
<path fill-rule="evenodd" clip-rule="evenodd" d="M28.4248 15.8588C28.6347 15.7788 28.6169 15.809 28.9426 15.8905C28.7264 15.9405 28.7265 15.9525 28.4248 15.8588Z" fill="#B3B3B3"/>
<path fill-rule="evenodd" clip-rule="evenodd" d="M29.098 31.4633C29.2601 31.4198 29.1458 31.4268 29.3022 31.4134C29.5788 31.387 29.3743 31.4008 29.549 31.4294C29.255 31.5221 29.3636 31.5453 29.098 31.4633Z" fill="#B3B3B3"/>
<path fill-rule="evenodd" clip-rule="evenodd" d="M28.9673 15.9142C29.1535 15.8705 29.069 15.8471 29.4068 15.9405L28.9673 15.9142Z" fill="#B3B3B3"/>
</g>
<defs>
<clipPath id="clip0_176_590">
<rect width="45" height="45" fill="white" transform="matrix(0.0217886 -0.999763 -0.999763 -0.0217886 44.9902 46.8621)"/>
</clipPath>
</defs>
</svg>
