<svg width="96" height="76" viewBox="0 0 96 76" fill="none" xmlns="http://www.w3.org/2000/svg">
<rect width="96" height="76" rx="10" fill="#F5F9FC"/>
<path d="M31.75 34.25H64.25V51.75C64.25 53.8197 62.5697 55.5 60.5 55.5H35.5C33.4303 55.5 31.75 53.8197 31.75 51.75V34.25Z" fill="url(#paint0_linear_210_1403)"/>
<path d="M64.25 34.25L48 46.125L31.75 34.25L48 22.375L64.25 34.25Z" fill="url(#paint1_linear_210_1403)"/>
<path d="M59.875 22.375V37.45L48 46.125L36.125 37.45V22.375C36.125 21.3394 36.9644 20.5 38 20.5H58C59.0356 20.5 59.875 21.3394 59.875 22.375Z" fill="#ECEFF1"/>
<path d="M64.25 51.7499C64.25 53.8186 62.5688 55.4999 60.5 55.4999H35.5C33.4313 55.4999 31.75 53.8186 31.75 51.7499L45.7136 41.0086C47.0615 39.9717 48.9384 39.9717 50.2864 41.0086L64.25 51.7499Z" fill="url(#paint2_linear_210_1403)"/>
<path d="M64.5265 33.8716L60.3438 30.8121V22.375C60.3438 21.0826 59.2921 20.0312 58 20.0312H38C36.7076 20.0312 35.6563 21.0826 35.6563 22.375V23.8145C35.6563 24.0733 35.8662 24.2832 36.125 24.2832C36.3838 24.2832 36.5938 24.0733 36.5938 23.8145V22.375C36.5938 21.5996 37.2246 20.9688 38 20.9688H58C58.7751 20.9688 59.4062 21.5996 59.4062 22.375V37.2101L52.5921 42.1912L50.572 40.6374C49.0589 39.4728 46.9431 39.4722 45.4276 40.6374L43.4078 42.1911L36.5937 37.2101V27.6997C36.5937 27.4409 36.3838 27.231 36.1249 27.231C35.8661 27.231 35.6562 27.4409 35.6562 27.6997V30.812L31.4731 33.8716C31.3526 33.9601 31.2812 34.1005 31.2812 34.2501V51.7501C31.2812 54.0764 33.1736 55.9688 35.4999 55.9688H60.4999C62.826 55.9688 64.7187 54.0764 64.7187 51.7501V34.2501C64.7187 34.1005 64.6473 33.9601 64.5265 33.8716ZM60.3438 31.9735L63.4558 34.25L60.3438 36.5249V31.9735ZM42.6339 42.7864L32.2188 50.7981V35.1734L42.6339 42.7864ZM35.6563 36.5247L32.5443 34.2499L35.6563 31.9737V36.5247ZM60.5 55.0313H35.5C33.7639 55.0313 32.3531 53.6722 32.2404 51.9642L45.9993 41.3805C47.1779 40.4747 48.8234 40.4744 50.0007 41.3802L57.2114 46.9268C57.4165 47.0857 57.7107 47.0457 57.8688 46.8413C58.0263 46.6359 57.9878 46.3417 57.7828 46.1839L53.366 42.7865L63.7812 35.1732V50.7983L59.5222 47.5221C59.3171 47.3638 59.0229 47.4028 58.8648 47.6076C58.7073 47.8129 58.7458 48.1071 58.9509 48.2649L63.7596 51.9639C63.647 53.6721 62.2359 55.0313 60.5 55.0313Z" fill="#051442"/>
<path d="M36.125 26.5613C36.3838 26.5613 36.5938 26.3513 36.5938 26.0925V25.4492C36.5938 25.1904 36.3838 24.9805 36.125 24.9805C35.8662 24.9805 35.6562 25.1904 35.6562 25.4492V26.0925C35.6562 26.3513 35.8662 26.5613 36.125 26.5613Z" fill="#051442"/>
<path d="M40.5 32.8438H55.5C55.7588 32.8438 55.9688 32.6338 55.9688 32.375C55.9688 32.1162 55.7588 31.9062 55.5 31.9062H40.5C40.2412 31.9062 40.0312 32.1162 40.0312 32.375C40.0312 32.6338 40.2412 32.8438 40.5 32.8438Z" fill="#051442"/>
<path d="M40.5 36.5938H55.5C55.7588 36.5938 55.9688 36.3838 55.9688 36.125C55.9688 35.8662 55.7588 35.6562 55.5 35.6562H40.5C40.2412 35.6562 40.0312 35.8662 40.0312 36.125C40.0312 36.3838 40.2412 36.5938 40.5 36.5938Z" fill="#051442"/>
<path d="M40.5 29.0938H55.5C55.7588 29.0938 55.9688 28.8838 55.9688 28.625C55.9688 28.3662 55.7588 28.1562 55.5 28.1562H40.5C40.2412 28.1562 40.0312 28.3662 40.0312 28.625C40.0312 28.8838 40.2412 29.0938 40.5 29.0938Z" fill="#051442"/>
<path d="M40.5 25.3438H55.5C55.7588 25.3438 55.9688 25.1338 55.9688 24.875C55.9688 24.6162 55.7588 24.4062 55.5 24.4062H40.5C40.2412 24.4062 40.0312 24.6162 40.0312 24.875C40.0312 25.1338 40.2412 25.3438 40.5 25.3438Z" fill="#051442"/>
<defs>
<linearGradient id="paint0_linear_210_1403" x1="31.75" y1="55.5" x2="64.6336" y2="54.6647" gradientUnits="userSpaceOnUse">
<stop stop-color="#3366CC"/>
<stop offset="1" stop-color="#0099FF"/>
</linearGradient>
<linearGradient id="paint1_linear_210_1403" x1="31.75" y1="46.125" x2="64.6378" y2="45.3776" gradientUnits="userSpaceOnUse">
<stop stop-color="#3366CC"/>
<stop offset="1" stop-color="#0099FF"/>
</linearGradient>
<linearGradient id="paint2_linear_210_1403" x1="31.75" y1="55.4999" x2="64.6138" y2="54.3381" gradientUnits="userSpaceOnUse">
<stop stop-color="#3366CC"/>
<stop offset="1" stop-color="#0099FF"/>
</linearGradient>
</defs>
</svg>
