<svg width="60" height="60" viewBox="0 0 60 60" fill="none" xmlns="http://www.w3.org/2000/svg">
<g filter="url(#filter0_d_193_1337)">
<rect x="6" y="6" width="40" height="40" rx="3" fill="white"/>
<g clip-path="url(#clip0_193_1337)">
<path d="M37.0935 23.9136L27.3042 23.9131C26.8719 23.9131 26.5215 24.2634 26.5215 24.6957V27.823C26.5215 28.2552 26.8719 28.6056 27.3041 28.6056H32.8169C32.2132 30.1722 31.0865 31.4842 29.6491 32.3178L31.9997 36.387C35.7704 34.2062 37.9997 30.3799 37.9997 26.0965C37.9997 25.4866 37.9548 25.0506 37.8649 24.5597C37.7965 24.1867 37.4727 23.9136 37.0935 23.9136Z" fill="#167EE6"/>
<path d="M26.0003 33.3043C23.3024 33.3043 20.9472 31.8303 19.6823 29.649L15.6133 31.9944C17.684 35.5832 21.5631 38 26.0003 38C28.177 38 30.2309 37.4139 32.0003 36.3925V36.387L29.6496 32.3177C28.5744 32.9414 27.3302 33.3043 26.0003 33.3043Z" fill="#12B347"/>
<path d="M32 36.3925V36.387L29.6494 32.3177C28.5741 32.9413 27.33 33.3043 26 33.3043V38C28.1767 38 30.2308 37.4139 32 36.3925Z" fill="#0F993E"/>
<path d="M18.6957 26C18.6957 24.6702 19.0586 23.4261 19.682 22.351L15.613 20.0056C14.586 21.7694 14 23.8177 14 26C14 28.1823 14.586 30.2307 15.613 31.9945L19.682 29.6491C19.0586 28.5739 18.6957 27.3298 18.6957 26Z" fill="#FFD500"/>
<path d="M26.0003 18.6957C27.7595 18.6957 29.3755 19.3208 30.6377 20.3606C30.9491 20.6171 31.4017 20.5986 31.6869 20.3134L33.9027 18.0976C34.2263 17.774 34.2033 17.2442 33.8575 16.9443C31.7428 15.1097 28.9912 14 26.0003 14C21.5631 14 17.684 16.4167 15.6133 20.0056L19.6823 22.3509C20.9472 20.1697 23.3024 18.6957 26.0003 18.6957Z" fill="#FF4B26"/>
<path d="M30.6374 20.3606C30.9488 20.6171 31.4015 20.5986 31.6866 20.3134L33.9024 18.0976C34.226 17.774 34.2029 17.2442 33.8573 16.9443C31.7425 15.1096 28.991 14 26 14V18.6957C27.7592 18.6957 29.3752 19.3208 30.6374 20.3606Z" fill="#D93F21"/>
</g>
</g>
<defs>
<filter id="filter0_d_193_1337" x="0" y="0" width="60" height="60" filterUnits="userSpaceOnUse" color-interpolation-filters="sRGB">
<feFlood flood-opacity="0" result="BackgroundImageFix"/>
<feColorMatrix in="SourceAlpha" type="matrix" values="0 0 0 0 0 0 0 0 0 0 0 0 0 0 0 0 0 0 127 0" result="hardAlpha"/>
<feOffset dx="4" dy="4"/>
<feGaussianBlur stdDeviation="5"/>
<feComposite in2="hardAlpha" operator="out"/>
<feColorMatrix type="matrix" values="0 0 0 0 0 0 0 0 0 0 0 0 0 0 0 0 0 0 0.08 0"/>
<feBlend mode="normal" in2="BackgroundImageFix" result="effect1_dropShadow_193_1337"/>
<feBlend mode="normal" in="SourceGraphic" in2="effect1_dropShadow_193_1337" result="shape"/>
</filter>
<clipPath id="clip0_193_1337">
<rect width="24" height="24" fill="white" transform="translate(14 14)"/>
</clipPath>
</defs>
</svg>
