<svg width="20" height="20" viewBox="0 0 20 20" fill="none" xmlns="http://www.w3.org/2000/svg">
<path d="M18.3337 14.1682C18.3333 15.3078 17.9437 16.4131 17.2295 17.3012C16.5153 18.1892 15.5192 18.8068 14.4062 19.0515L13.8745 17.4565C14.3614 17.3763 14.8244 17.1891 15.2302 16.9084C15.6359 16.6277 15.9744 16.2605 16.2212 15.8332H14.167C13.725 15.8332 13.301 15.6576 12.9885 15.345C12.6759 15.0325 12.5003 14.6085 12.5003 14.1665V10.8332C12.5003 10.3911 12.6759 9.96722 12.9885 9.65466C13.301 9.3421 13.725 9.1665 14.167 9.1665H16.6153C16.412 7.55558 15.6278 6.07423 14.4098 5.0004C13.1919 3.92657 11.624 3.33407 10.0003 3.33407C8.37662 3.33407 6.80871 3.92657 5.5908 5.0004C4.37289 6.07423 3.58868 7.55558 3.38533 9.1665H5.83366C6.27569 9.1665 6.69961 9.3421 7.01217 9.65466C7.32473 9.96722 7.50033 10.3911 7.50033 10.8332V14.1665C7.50033 14.6085 7.32473 15.0325 7.01217 15.345C6.69961 15.6576 6.27569 15.8332 5.83366 15.8332H3.33366C2.89163 15.8332 2.46771 15.6576 2.15515 15.345C1.84259 15.0325 1.66699 14.6085 1.66699 14.1665V9.99984C1.66699 5.39734 5.39783 1.6665 10.0003 1.6665C14.6028 1.6665 18.3337 5.39734 18.3337 9.99984V14.1665V14.1682ZM16.667 14.1665V10.8332H14.167V14.1665H16.667ZM3.33366 10.8332V14.1665H5.83366V10.8332H3.33366Z" fill="#FFBF00"/>
</svg>
