<svg width="17" height="18" viewBox="0 0 17 18" fill="none" xmlns="http://www.w3.org/2000/svg">
<path fill-rule="evenodd" clip-rule="evenodd" d="M6.85284 1.28869C7.84575 0.609333 9.15392 0.609333 10.1468 1.28869L15.5635 4.99483C16.3581 5.53849 16.8332 6.43923 16.8332 7.402V14.4167C16.8332 16.0275 15.5273 17.3333 13.9165 17.3333H3.08317C1.47234 17.3333 0.166504 16.0275 0.166504 14.4167V7.402C0.166504 6.43923 0.641604 5.53849 1.43618 4.99483L6.85284 1.28869ZM6.4165 13.5833C6.18639 13.5833 5.99984 13.7699 5.99984 14C5.99984 14.2301 6.18639 14.4167 6.4165 14.4167H10.5832C10.8133 14.4167 10.9998 14.2301 10.9998 14C10.9998 13.7699 10.8133 13.5833 10.5832 13.5833H6.4165Z" fill="white"/>
</svg>
