<svg width="25" height="24" viewBox="0 0 25 24" fill="none" xmlns="http://www.w3.org/2000/svg">
<g clip-path="url(#clip0_137_2316)">
<path d="M22 21H3C1.622 21 0.5 19.878 0.5 18.5V5.5C0.5 4.122 1.622 3 3 3H22C23.378 3 24.5 4.122 24.5 5.5V18.5C24.5 19.878 23.378 21 22 21ZM3 4C2.173 4 1.5 4.673 1.5 5.5V18.5C1.5 19.327 2.173 20 3 20H22C22.827 20 23.5 19.327 23.5 18.5V5.5C23.5 4.673 22.827 4 22 4H3Z" fill="#979797"/>
<path d="M8 12C6.622 12 5.5 10.878 5.5 9.5C5.5 8.122 6.622 7 8 7C9.378 7 10.5 8.122 10.5 9.5C10.5 10.878 9.378 12 8 12ZM8 8C7.173 8 6.5 8.673 6.5 9.5C6.5 10.327 7.173 11 8 11C8.827 11 9.5 10.327 9.5 9.5C9.5 8.673 8.827 8 8 8Z" fill="#979797"/>
<path d="M12 17C11.724 17 11.5 16.776 11.5 16.5V15.5C11.5 14.673 10.827 14 10 14H6C5.173 14 4.5 14.673 4.5 15.5V16.5C4.5 16.776 4.276 17 4 17C3.724 17 3.5 16.776 3.5 16.5V15.5C3.5 14.122 4.622 13 6 13H10C11.378 13 12.5 14.122 12.5 15.5V16.5C12.5 16.776 12.276 17 12 17Z" fill="#979797"/>
<path d="M21 9H15C14.724 9 14.5 8.776 14.5 8.5C14.5 8.224 14.724 8 15 8H21C21.276 8 21.5 8.224 21.5 8.5C21.5 8.776 21.276 9 21 9Z" fill="#979797"/>
<path d="M21 13H15C14.724 13 14.5 12.776 14.5 12.5C14.5 12.224 14.724 12 15 12H21C21.276 12 21.5 12.224 21.5 12.5C21.5 12.776 21.276 13 21 13Z" fill="#979797"/>
<path d="M21 17H15C14.724 17 14.5 16.776 14.5 16.5C14.5 16.224 14.724 16 15 16H21C21.276 16 21.5 16.224 21.5 16.5C21.5 16.776 21.276 17 21 17Z" fill="#979797"/>
</g>
<defs>
<clipPath id="clip0_137_2316">
<rect width="24" height="24" fill="white" transform="translate(0.5)"/>
</clipPath>
</defs>
</svg>
