<svg width="13" height="17" viewBox="0 0 13 17" fill="none" xmlns="http://www.w3.org/2000/svg">
<path d="M6.27441 0.5C2.96641 0.5 0.274414 3.21067 0.274414 6.54333C0.274414 11.2787 5.71041 16.168 5.94175 16.3733C6.03708 16.458 6.15575 16.5 6.27441 16.5C6.39308 16.5 6.51175 16.458 6.60708 16.374C6.83841 16.168 12.2744 11.2787 12.2744 6.54333C12.2744 3.21067 9.58241 0.5 6.27441 0.5ZM6.27441 9.83333C4.43641 9.83333 2.94108 8.338 2.94108 6.5C2.94108 4.662 4.43641 3.16667 6.27441 3.16667C8.11241 3.16667 9.60775 4.662 9.60775 6.5C9.60775 8.338 8.11241 9.83333 6.27441 9.83333Z" fill="#12AF98" fill-opacity="0.4"/>
</svg>
