<svg width="24" height="24" viewBox="0 0 24 24" fill="none" xmlns="http://www.w3.org/2000/svg">
<path fill-rule="evenodd" clip-rule="evenodd" d="M9 16C9 14.4812 10.2312 13.25 11.75 13.25C13.2688 13.25 14.5 14.4812 14.5 16C14.5 17.5188 13.2688 18.75 11.75 18.75C10.2312 18.75 9 17.5188 9 16ZM11.75 14.75C11.0596 14.75 10.5 15.3096 10.5 16C10.5 16.6904 11.0596 17.25 11.75 17.25C12.4404 17.25 13 16.6904 13 16C13 15.3096 12.4404 14.75 11.75 14.75Z" fill="#FFBF00"/>
<path fill-rule="evenodd" clip-rule="evenodd" d="M5 9.30277V8C5 4.27208 8.02208 1.25 11.75 1.25C15.4779 1.25 18.5 4.27208 18.5 8V9.30277C18.7268 9.31872 18.9406 9.33948 19.1418 9.36652C20.0419 9.48754 20.7997 9.74643 21.4017 10.3483C22.0036 10.9503 22.2625 11.7081 22.3835 12.6082C22.5 13.4752 22.5 14.5775 22.5 15.9451V16.0549C22.5 17.4225 22.5 18.5248 22.3835 19.3918C22.2625 20.2919 22.0036 21.0497 21.4017 21.6516C20.7997 22.2536 20.0419 22.5125 19.1418 22.6335C18.2748 22.75 17.1725 22.75 15.8049 22.75H7.69513C6.32754 22.75 5.22522 22.75 4.35825 22.6335C3.45814 22.5125 2.70027 22.2536 2.09835 21.6516C1.49643 21.0497 1.23754 20.2919 1.11652 19.3918C0.999964 18.5248 0.99998 17.4225 1 16.0549V15.9451C0.99998 14.5775 0.999964 13.4752 1.11652 12.6082C1.23754 11.7081 1.49643 10.9503 2.09835 10.3483C2.70027 9.74643 3.45814 9.48754 4.35825 9.36652C4.55938 9.33948 4.77317 9.31872 5 9.30277ZM6.5 8C6.5 5.10051 8.85051 2.75 11.75 2.75C14.6495 2.75 17 5.10051 17 8V9.25344C16.6265 9.24999 16.2284 9.24999 15.8049 9.25H7.69513C7.27161 9.24999 6.87353 9.24999 6.5 9.25344V8ZM4.55812 10.8531C3.82435 10.9518 3.43577 11.1322 3.15901 11.409C2.88225 11.6858 2.7018 12.0743 2.60315 12.8081C2.50159 13.5635 2.5 14.5646 2.5 16C2.5 17.4354 2.50159 18.4365 2.60315 19.1919C2.7018 19.9257 2.88225 20.3142 3.15901 20.591C3.43577 20.8678 3.82435 21.0482 4.55812 21.1469C5.31347 21.2484 6.31459 21.25 7.75 21.25H15.75C17.1854 21.25 18.1865 21.2484 18.9419 21.1469C19.6757 21.0482 20.0642 20.8678 20.341 20.591C20.6178 20.3142 20.7982 19.9257 20.8969 19.1919C20.9984 18.4365 21 17.4354 21 16C21 14.5646 20.9984 13.5635 20.8969 12.8081C20.7982 12.0743 20.6178 11.6858 20.341 11.409C20.0642 11.1322 19.6757 10.9518 18.9419 10.8531C18.1865 10.7516 17.1854 10.75 15.75 10.75H7.75C6.31459 10.75 5.31347 10.7516 4.55812 10.8531Z" fill="#FFBF00"/>
</svg>
