<svg width="32" height="32" viewBox="0 0 32 32" fill="none" xmlns="http://www.w3.org/2000/svg">
<circle cx="16" cy="16" r="16" fill="url(#paint0_linear_2428_6452)" fill-opacity="0.15"/>
<g clip-path="url(#clip0_2428_6452)">
<path d="M16.962 8.83301C16.0507 8.83301 15.3153 8.83301 14.7373 8.91101C14.1373 8.99101 13.632 9.16434 13.2307 9.56501C12.8813 9.91501 12.704 10.345 12.6113 10.8503C12.5213 11.3417 12.504 11.9423 12.5 12.6637C12.4993 12.7963 12.5513 12.9237 12.6446 13.018C12.7378 13.1123 12.8647 13.1656 12.9973 13.1663C13.1299 13.167 13.2574 13.115 13.3517 13.0218C13.4459 12.9285 13.4993 12.8016 13.5 12.669C13.504 11.9403 13.5227 11.4237 13.5947 11.031C13.6647 10.6537 13.776 10.4343 13.938 10.2723C14.1227 10.0877 14.382 9.96767 14.8713 9.90167C15.3747 9.83434 16.042 9.83301 16.9987 9.83301H17.6653C18.6227 9.83301 19.29 9.83434 19.7933 9.90167C20.2827 9.96767 20.5413 10.0883 20.7267 10.2723C20.912 10.4563 21.0307 10.7157 21.0967 11.2057C21.1647 11.7083 21.1653 12.3763 21.1653 13.333V18.6663C21.1653 19.623 21.1647 20.291 21.0967 20.7943C21.0307 21.2837 20.9107 21.5423 20.726 21.727C20.5413 21.9117 20.2827 22.0317 19.7933 22.0977C19.29 22.165 18.6227 22.1663 17.6653 22.1663H16.9987C16.042 22.1663 15.3747 22.165 14.8707 22.0977C14.382 22.0317 14.1227 21.911 13.938 21.727C13.776 21.565 13.6647 21.3457 13.5947 20.9683C13.5227 20.5757 13.504 20.059 13.5 19.3303C13.4997 19.2647 13.4864 19.1997 13.4609 19.1392C13.4355 19.0787 13.3984 19.0238 13.3517 18.9776C13.305 18.9314 13.2497 18.8949 13.1889 18.87C13.1281 18.8452 13.063 18.8327 12.9973 18.833C12.9317 18.8334 12.8667 18.8466 12.8062 18.8721C12.7457 18.8975 12.6907 18.9347 12.6446 18.9813C12.5984 19.028 12.5619 19.0833 12.537 19.1441C12.5122 19.2049 12.4997 19.27 12.5 19.3357C12.504 20.057 12.5213 20.6577 12.6113 21.149C12.7047 21.6543 12.8813 22.0843 13.2313 22.4343C13.632 22.8357 14.138 23.0077 14.738 23.089C15.3153 23.1663 16.0507 23.1663 16.962 23.1663H17.702C18.614 23.1663 19.3487 23.1663 19.9267 23.0883C20.5267 23.0083 21.032 22.835 21.4333 22.4343C21.8347 22.033 22.0067 21.5277 22.088 20.9277C22.1653 20.3497 22.1653 19.6143 22.1653 18.703V13.2963C22.1653 12.385 22.1653 11.6497 22.088 11.0717C22.0073 10.4717 21.8347 9.96634 21.4333 9.56501C21.032 9.16367 20.5267 8.99167 19.9267 8.91101C19.3487 8.83301 18.6133 8.83301 17.702 8.83301H16.962Z" fill="url(#paint1_linear_2428_6452)"/>
<path d="M16.9991 15.4993C17.1317 15.4993 17.2589 15.5519 17.3526 15.6457C17.4464 15.7395 17.4991 15.8667 17.4991 15.9993C17.4991 16.1319 17.4464 16.2591 17.3526 16.3528C17.2589 16.4466 17.1317 16.4993 16.9991 16.4993H9.68374L10.9911 17.6193C11.0919 17.7055 11.1542 17.8283 11.1645 17.9606C11.1747 18.0929 11.132 18.2238 11.0457 18.3246C10.9595 18.4254 10.8367 18.4878 10.7044 18.498C10.5721 18.5083 10.4412 18.4655 10.3404 18.3793L8.00707 16.3793C7.95218 16.3323 7.90811 16.2741 7.87789 16.2085C7.84768 16.1429 7.83203 16.0715 7.83203 15.9993C7.83203 15.927 7.84768 15.8557 7.87789 15.7901C7.90811 15.7245 7.95218 15.6662 8.00707 15.6193L10.3404 13.6193C10.3903 13.5765 10.4481 13.5441 10.5106 13.5237C10.573 13.5033 10.6389 13.4954 10.7044 13.5005C10.7699 13.5056 10.8337 13.5235 10.8923 13.5533C10.9509 13.583 11.003 13.624 11.0457 13.6739C11.0885 13.7238 11.1209 13.7817 11.1413 13.8441C11.1617 13.9066 11.1696 13.9724 11.1645 14.0379C11.1594 14.1034 11.1415 14.1673 11.1117 14.2258C11.082 14.2844 11.041 14.3365 10.9911 14.3793L9.6844 15.4993H16.9991Z" fill="url(#paint2_linear_2428_6452)"/>
</g>
<defs>
<linearGradient id="paint0_linear_2428_6452" x1="5.96046e-08" y1="32" x2="32.3897" y2="31.4621" gradientUnits="userSpaceOnUse">
<stop stop-color="#3366CC"/>
<stop offset="1" stop-color="#0099FF"/>
</linearGradient>
<linearGradient id="paint1_linear_2428_6452" x1="12.5" y1="23.1663" x2="22.2845" y2="23.0568" gradientUnits="userSpaceOnUse">
<stop stop-color="#3366CC"/>
<stop offset="1" stop-color="#0099FF"/>
</linearGradient>
<linearGradient id="paint2_linear_2428_6452" x1="7.83203" y1="18.4995" x2="17.6094" y2="18.1856" gradientUnits="userSpaceOnUse">
<stop stop-color="#3366CC"/>
<stop offset="1" stop-color="#0099FF"/>
</linearGradient>
<clipPath id="clip0_2428_6452">
<rect width="16" height="16" fill="white" transform="translate(7 8)"/>
</clipPath>
</defs>
</svg>
