<svg width="9" height="16" viewBox="0 0 9 16" fill="none" xmlns="http://www.w3.org/2000/svg">
<path d="M0.55819 9.14641L2.10198 8.50094C2.36766 8.38986 2.67314 8.51521 2.78422 8.78089L4.5675 13.0461C4.85671 13.7378 4.52942 14.5354 3.8377 14.8246C3.14599 15.1138 2.34835 14.7865 2.05914 14.0948L0.275852 9.82965C0.164772 9.56397 0.29012 9.25849 0.555796 9.14741L0.55819 9.14641Z" fill="#12AF98"/>
<path d="M7.17519 1.67158C5.98961 0.527507 4.45121 -0.0250702 2.92579 0.000872363C2.06449 0.0164379 1.20579 0.221384 0.414546 0.607929C0.0591321 0.781744 -0.0939291 1.20461 0.0591322 1.5704L0.707697 3.11917C0.876324 3.52388 1.35886 3.70029 1.748 3.49793C2.13713 3.29558 2.53665 3.19441 2.96989 3.18403C3.67812 3.16587 4.37598 3.42529 4.90002 3.90004C5.47854 4.42149 5.80542 5.14269 5.81839 5.91838C5.83136 6.69406 5.55637 7.36597 5.04011 7.90299L3.41092 9.59444L4.74696 12.7906L7.33084 10.1107C8.47491 8.92513 9.02749 7.38673 8.99895 5.8613C8.97041 4.33588 8.36076 2.81824 7.17519 1.67676V1.67158Z" fill="#12AF98"/>
</svg>
