<svg width="284" height="62" viewBox="0 0 284 62" fill="none" xmlns="http://www.w3.org/2000/svg">
<g clip-path="url(#clip0_277_184)">
<path d="M63.22 6.25007C63.88 4.26007 64.89 2.77007 66.23 1.79007C67.57 0.810068 69.23 0.320068 71.19 0.320068C75.12 0.320068 77.82 2.28007 79.29 6.21007L98.78 56.1901C99.21 57.1701 98.88 57.6601 97.78 57.6601H86.74C85.9 57.6601 85.35 57.2901 85.09 56.5301L81.06 45.9201H61.09L57.02 56.6201C56.79 57.3101 56.25 57.6601 55.42 57.6601H44.55C44.03 57.6601 43.69 57.5401 43.53 57.2901C43.37 57.0401 43.39 56.7201 43.59 56.3201L63.22 6.25007ZM68.59 22.6201L64.56 34.6201H77.68L73.52 22.8001C72.97 21.4101 72.49 20.0701 72.07 18.7501C71.65 17.4401 71.3 16.1401 71.01 14.8701L68.58 22.7501V22.6201H68.59Z" fill="black"/>
<path d="M136.08 0.320068C141.94 0.320068 146.69 1.80007 150.35 4.76007C154.51 8.13007 156.59 12.6901 156.59 18.4601C156.59 26.9501 152.95 32.6101 145.66 35.4501L159.1 56.0901C159.57 57.1401 159.32 57.6701 158.35 57.6701H146.23C145.47 57.6701 144.94 57.4701 144.65 57.0501L131.92 37.4201H122.48V56.4301C122.48 57.2501 122.09 57.6601 121.29 57.6601H110.62C109.86 57.6601 109.48 57.2501 109.48 56.4301V7.78007C109.48 2.80007 111.81 0.320068 116.46 0.320068H136.09H136.08ZM135.82 25.6101C140.88 25.6101 143.42 23.3101 143.42 18.7201C143.42 14.7101 140.89 12.7001 135.82 12.7001H122.47V25.6101H135.82Z" fill="black"/>
<path d="M176.25 8.13006V8.21006C180.78 2.94006 186.81 0.310059 194.35 0.310059C201.89 0.310059 207.94 2.94006 212.53 8.21006C216.95 13.3901 219.16 20.3201 219.16 28.9801C219.16 37.6401 216.68 44.8801 211.73 50.0901L215.38 55.1901C215.66 55.5001 215.77 55.8101 215.7 56.1001C215.63 56.4001 215.4 56.6501 215 56.8401L207.52 61.7301C207.21 62.0401 206.9 62.1701 206.59 62.1101C206.28 62.0501 206.04 61.8401 205.87 61.4701L202.43 56.4601C201.27 56.8801 200.02 57.1901 198.69 57.3701C197.36 57.5501 195.91 57.6501 194.36 57.6501C186.83 57.6501 180.79 55.0601 176.26 49.8801C171.76 44.6701 169.51 37.7001 169.51 28.9801C169.51 20.2601 171.76 13.3301 176.26 8.21006V8.13006H176.25ZM194.35 12.3801C190.13 12.3801 186.99 14.0801 184.92 17.4801C183.99 18.9501 183.31 20.6401 182.88 22.5401C182.45 24.4401 182.24 26.5901 182.24 29.0001C182.24 34.1301 183.23 38.2301 185.21 41.3201C187.31 44.3501 190.24 46.0201 194 46.3301L195.4 46.1201L192.43 41.8701C192.26 41.5901 192.19 41.3101 192.22 41.0401C192.25 40.7701 192.42 40.5401 192.73 40.3401L200.12 35.5001C200.52 35.3001 200.85 35.2201 201.12 35.2701C201.39 35.3101 201.64 35.5001 201.86 35.8401L204.62 39.9601C205.84 37.5001 206.45 33.8401 206.45 29.0001C206.45 26.5701 206.24 24.3801 205.81 22.4401C205.39 20.5001 204.72 18.8101 203.81 17.3601C201.71 14.0501 198.56 12.3901 194.34 12.3901L194.35 12.3801Z" fill="black"/>
<path d="M2.15321 35.253L8.10402 32.765C9.12811 32.3368 10.3056 32.82 10.7338 33.8441L17.6078 50.2849C18.7226 52.9512 17.461 56.0258 14.7946 57.1406C12.1283 58.2554 9.05368 56.9938 7.93887 54.3275L1.0649 37.8867C0.636721 36.8626 1.1199 35.6851 2.14399 35.2569L2.15321 35.253Z" fill="#12AF98"/>
<path d="M27.6599 6.43994C23.0899 2.02994 17.1599 -0.100055 11.2799 -5.53036e-05C7.95989 0.0599447 4.64989 0.849945 1.59989 2.33994C0.229888 3.00994 -0.360112 4.63995 0.229888 6.04994L2.72989 12.0199C3.37989 13.5799 5.23989 14.2599 6.73989 13.4799C8.23989 12.6999 9.77989 12.3099 11.4499 12.2699C14.1799 12.1999 16.8699 13.1999 18.8899 15.0299C21.1199 17.0399 22.3799 19.8199 22.4299 22.8099C22.4799 25.7999 21.4199 28.3899 19.4299 30.4599L13.1499 36.9799L18.2999 49.2999L28.2599 38.9699C32.6699 34.3999 34.7999 28.4699 34.6899 22.5899C34.5799 16.7099 32.2299 10.8599 27.6599 6.45994V6.43994Z" fill="#12AF98"/>
<path d="M229.848 35.4234L235.789 32.9392C236.813 32.511 237.991 32.9942 238.419 34.0183L245.278 50.4222C246.388 53.0793 245.136 56.1501 242.47 57.2649C239.813 58.3758 236.742 57.1234 235.627 54.4571L228.769 38.0532C228.34 37.0291 228.824 35.8516 229.848 35.4234Z" fill="#12AF98"/>
<path d="M239.46 38.5599V40.5299H242.32V41.7499H239.46V44.5799H238.35V37.4399H242.63V38.5499H239.46V38.5599Z" fill="black"/>
<path d="M243.84 38.7898C243.71 38.6498 243.64 38.4898 243.64 38.2798C243.64 38.0698 243.71 37.9098 243.84 37.7698C243.97 37.6398 244.13 37.5698 244.32 37.5698C244.51 37.5698 244.67 37.6398 244.8 37.7698C244.93 37.9098 245 38.0698 245 38.2798C245 38.4898 244.93 38.6498 244.8 38.7898C244.67 38.9198 244.51 38.9898 244.32 38.9898C244.13 38.9898 243.97 38.9198 243.84 38.7898ZM244.9 39.6598V44.4298H243.74V39.6598H244.9Z" fill="black"/>
<path d="M246.29 39.5799H247.14L247.23 40.0999C247.68 39.6199 248.17 39.3799 248.72 39.3799C249.24 39.3799 249.69 39.5299 250.06 39.8199C250.43 40.1099 250.62 40.5599 250.62 41.1699V44.3799H249.41V41.5399C249.41 41.2599 249.34 41.0299 249.18 40.8499C249.02 40.6699 248.81 40.5799 248.54 40.5799C248.27 40.5799 248.03 40.6699 247.84 40.8599C247.65 41.0499 247.56 41.2699 247.56 41.5399V44.3899H246.34L246.3 39.5799H246.29Z" fill="black"/>
<path d="M252.7 44.0999C252.31 43.8799 252 43.5799 251.77 43.1899C251.54 42.8099 251.43 42.3799 251.43 41.9299C251.43 41.4799 251.54 41.0399 251.77 40.6399C252 40.2499 252.3 39.9399 252.7 39.7099C253.1 39.4799 253.52 39.3699 253.98 39.3699C254.53 39.3699 255.03 39.5299 255.46 39.8499V37.1699H256.56V44.3699H255.46V43.9399C255.02 44.2599 254.52 44.4299 253.98 44.4299C253.51 44.4299 253.09 44.3199 252.7 44.0999ZM254.6 43.2099C254.81 43.1099 254.98 42.9599 255.12 42.7399C255.26 42.5299 255.33 42.2599 255.33 41.9299C255.33 41.5999 255.26 41.3299 255.12 41.1099C254.98 40.8899 254.8 40.7399 254.59 40.6399C254.38 40.5399 254.18 40.4899 253.97 40.4899C253.76 40.4899 253.55 40.5399 253.34 40.6399C253.13 40.7399 252.96 40.8899 252.81 41.1099C252.67 41.3299 252.6 41.5999 252.6 41.9299C252.6 42.2599 252.67 42.5299 252.81 42.7399C252.95 42.9499 253.13 43.1099 253.34 43.2099C253.55 43.3099 253.76 43.3599 253.97 43.3599C254.18 43.3599 254.39 43.3099 254.59 43.2099H254.6Z" fill="black"/>
<path d="M258.44 43.5L257.83 45.33H256.81L257.42 43.5H258.44Z" fill="black"/>
<path d="M239.04 48.0698L240.45 51.1498L241.85 48.0698H243.11L241.02 52.1998V54.9998H239.9V52.1998L237.81 48.0698H239.06H239.04Z" fill="black"/>
<path d="M244.25 54.8599C243.86 54.6299 243.55 54.3299 243.32 53.9299C243.09 53.5399 242.98 53.1099 242.98 52.6499C242.98 52.1899 243.09 51.7599 243.32 51.3699C243.55 50.9799 243.85 50.6699 244.25 50.4399C244.64 50.2099 245.07 50.0999 245.53 50.0999C245.99 50.0999 246.41 50.2099 246.81 50.4399C247.2 50.6699 247.51 50.9699 247.74 51.3699C247.97 51.7599 248.08 52.1899 248.08 52.6499C248.08 53.1099 247.97 53.5299 247.74 53.9299C247.51 54.3199 247.21 54.6299 246.81 54.8599C246.42 55.0899 245.99 55.1999 245.53 55.1999C245.07 55.1999 244.64 55.0899 244.25 54.8599ZM246.16 53.9399C246.37 53.8399 246.54 53.6899 246.68 53.4699C246.82 53.2599 246.89 52.9899 246.89 52.6599C246.89 52.3299 246.82 52.0599 246.68 51.8399C246.54 51.6199 246.36 51.4699 246.15 51.3699C245.94 51.2699 245.74 51.2199 245.53 51.2199C245.32 51.2199 245.11 51.2699 244.9 51.3699C244.69 51.4699 244.52 51.6199 244.37 51.8399C244.23 52.0599 244.16 52.3299 244.16 52.6599C244.16 52.9899 244.23 53.2599 244.37 53.4699C244.51 53.6799 244.69 53.8399 244.9 53.9399C245.11 54.0399 245.32 54.0899 245.53 54.0899C245.74 54.0899 245.95 54.0399 246.15 53.9399H246.16Z" fill="black"/>
<path d="M253.24 55H252.47L252.35 54.64C251.96 55.02 251.5 55.21 250.97 55.21C250.34 55.21 249.82 55.04 249.41 54.71C249 54.38 248.81 53.83 248.81 53.07V50.22H250.03V53.08C250.03 53.35 250.11 53.58 250.3 53.76C250.49 53.95 250.72 54.04 251 54.04C251.28 54.04 251.51 53.95 251.7 53.76C251.89 53.57 251.98 53.35 251.98 53.08V50.22H253.2V52.94L253.22 55.01L253.24 55Z" fill="black"/>
<path d="M255.84 51.4698C255.63 51.6498 255.53 51.8998 255.53 52.2198L255.51 55.0098H254.31L254.32 50.2098H255.3L255.33 50.6898C255.82 50.2298 256.38 50.0098 257.01 50.0298V51.1598C256.44 51.1798 256.05 51.2798 255.84 51.4598V51.4698Z" fill="black"/>
<path d="M262.15 53.5899C262.4 53.8199 262.74 53.9299 263.2 53.9299C263.57 53.9299 263.87 53.8599 264.11 53.7099C264.35 53.5599 264.45 53.3299 264.43 52.9999C264.43 52.8399 264.32 52.6799 264.11 52.5199C263.9 52.3499 263.56 52.2499 263.06 52.1999C262.21 52.1199 261.6 51.8699 261.23 51.4699C260.86 51.0699 260.67 50.5799 260.67 50.0199C260.67 49.6499 260.76 49.2999 260.93 48.9799C261.11 48.6599 261.37 48.3899 261.73 48.1899C262.09 47.9899 262.53 47.8899 263.06 47.8899C263.61 47.8899 264.09 47.9999 264.48 48.2299C264.87 48.4599 265.17 48.7499 265.37 49.0999C265.57 49.4599 265.68 49.8299 265.69 50.2199H264.45C264.42 49.9199 264.3 49.6599 264.07 49.4299C263.84 49.1999 263.56 49.0799 263.22 49.0799C262.88 49.0799 262.58 49.1699 262.34 49.3499C262.1 49.5299 261.98 49.7399 261.98 49.9899C261.98 50.2699 262.1 50.4799 262.33 50.6399C262.57 50.7999 262.9 50.8899 263.32 50.9199C264.22 50.9999 264.87 51.2199 265.25 51.5799C265.63 51.9399 265.82 52.3899 265.82 52.9199C265.82 53.2999 265.73 53.6499 265.54 53.9899C265.35 54.3199 265.06 54.5899 264.66 54.7999C264.26 55.0099 263.77 55.1099 263.17 55.1099C262.62 55.1099 262.14 54.9999 261.74 54.7699C261.34 54.5399 261.04 54.2499 260.82 53.8899C260.6 53.5299 260.49 53.1499 260.47 52.7499H261.7C261.74 53.0799 261.88 53.3599 262.13 53.5899H262.15Z" fill="black"/>
<path d="M270.47 50.3998C270.86 50.6198 271.17 50.9198 271.4 51.3098C271.63 51.6898 271.74 52.1198 271.74 52.5698C271.74 53.0198 271.63 53.4598 271.4 53.8498C271.17 54.2398 270.87 54.5498 270.47 54.7798C270.08 55.0098 269.65 55.1198 269.19 55.1198C268.64 55.1198 268.15 54.9598 267.71 54.6398V57.6598H266.61V50.1198H267.71V50.5598C268.16 50.2398 268.65 50.0698 269.19 50.0698C269.66 50.0698 270.08 50.1798 270.47 50.3998ZM268.57 51.2898C268.36 51.3898 268.19 51.5398 268.05 51.7598C267.91 51.9698 267.84 52.2398 267.84 52.5698C267.84 52.8998 267.91 53.1698 268.05 53.3898C268.19 53.6098 268.37 53.7598 268.58 53.8598C268.79 53.9598 268.99 54.0098 269.2 54.0098C269.41 54.0098 269.62 53.9598 269.83 53.8598C270.04 53.7598 270.21 53.6098 270.36 53.3898C270.51 53.1698 270.57 52.8998 270.57 52.5698C270.57 52.2398 270.5 51.9698 270.36 51.7598C270.22 51.5498 270.04 51.3898 269.83 51.2898C269.62 51.1898 269.41 51.1398 269.2 51.1398C268.99 51.1398 268.78 51.1898 268.58 51.2898H268.57Z" fill="black"/>
<path d="M273.76 54.8599C273.37 54.6299 273.06 54.3299 272.83 53.9299C272.6 53.5399 272.49 53.1099 272.49 52.6499C272.49 52.1899 272.6 51.7599 272.83 51.3699C273.06 50.9799 273.36 50.6699 273.76 50.4399C274.15 50.2099 274.58 50.0999 275.04 50.0999C275.5 50.0999 275.92 50.2099 276.32 50.4399C276.71 50.6699 277.02 50.9699 277.25 51.3699C277.48 51.7599 277.59 52.1899 277.59 52.6499C277.59 53.1099 277.48 53.5299 277.25 53.9299C277.02 54.3199 276.72 54.6299 276.32 54.8599C275.93 55.0899 275.5 55.1999 275.04 55.1999C274.58 55.1999 274.15 55.0899 273.76 54.8599ZM275.67 53.9399C275.88 53.8399 276.05 53.6899 276.19 53.4699C276.33 53.2599 276.4 52.9899 276.4 52.6599C276.4 52.3299 276.33 52.0599 276.19 51.8399C276.05 51.6199 275.87 51.4699 275.66 51.3699C275.45 51.2699 275.25 51.2199 275.04 51.2199C274.83 51.2199 274.62 51.2699 274.41 51.3699C274.2 51.4699 274.03 51.6199 273.88 51.8399C273.74 52.0599 273.67 52.3299 273.67 52.6599C273.67 52.9899 273.74 53.2599 273.88 53.4699C274.02 53.6799 274.2 53.8399 274.41 53.9399C274.62 54.0399 274.83 54.0899 275.04 54.0899C275.25 54.0899 275.46 54.0399 275.66 53.9399H275.67Z" fill="black"/>
<path d="M278.89 54.9998V51.6198H278.14V50.4098H278.89V47.8198H280.1V50.4098H280.93V51.6198H280.1V54.9998H278.89Z" fill="black"/>
<path d="M282.34 55C282.22 54.87 282.15 54.7 282.15 54.49C282.15 54.28 282.21 54.12 282.34 53.98C282.46 53.85 282.62 53.78 282.81 53.78C283 53.78 283.16 53.85 283.28 53.98C283.4 54.12 283.47 54.28 283.47 54.49C283.47 54.7 283.41 54.86 283.28 55C283.16 55.14 283 55.2 282.81 55.2C282.62 55.2 282.46 55.13 282.34 55Z" fill="black"/>
</g>
<defs>
<clipPath id="clip0_277_184">
<rect width="283.46" height="61.95" fill="white"/>
</clipPath>
</defs>
</svg>
