<svg width="24" height="24" viewBox="0 0 24 24" fill="none" xmlns="http://www.w3.org/2000/svg">
<path d="M17.4298 23.3511H3.65188C3.1145 23.3511 2.67889 22.9155 2.67889 22.3781V1.62142C2.67889 1.08405 3.1145 0.648438 3.65188 0.648438H17.4298C18.5041 0.649516 19.3747 1.52013 19.3758 2.59441V21.4052C19.3747 22.4794 18.5041 23.35 17.4298 23.3511ZM3.65188 1.29709C3.47277 1.29709 3.32755 1.44231 3.32755 1.62142V22.3782C3.32755 22.5573 3.47277 22.7025 3.65188 22.7025H17.4298C18.1463 22.7025 18.7272 22.1217 18.7272 21.4052V2.59436C18.7272 1.87788 18.1463 1.29705 17.4298 1.29705H3.65188V1.29709Z" fill="#3366CC"/>
<path d="M17.4298 23.3511H3.65188C3.1145 23.3511 2.67889 22.9155 2.67889 22.3781V1.62142C2.67889 1.08405 3.1145 0.648438 3.65188 0.648438H17.4298C18.5041 0.649516 19.3747 1.52013 19.3758 2.59441V21.4052C19.3747 22.4794 18.5041 23.35 17.4298 23.3511ZM3.65188 1.29709C3.47277 1.29709 3.32755 1.44231 3.32755 1.62142V22.3782C3.32755 22.5573 3.47277 22.7025 3.65188 22.7025H17.4298C18.1463 22.7025 18.7272 22.1217 18.7272 21.4052V2.59436C18.7272 1.87788 18.1463 1.29705 17.4298 1.29705H3.65188V1.29709Z" fill="#3366CC"/>
<path d="M19.3752 23.3512H17.4292C17.2501 23.3512 17.1049 23.206 17.1049 23.0268C17.1049 22.8477 17.2501 22.7025 17.4292 22.7025H19.3752C20.0916 22.7025 20.6725 22.1217 20.6725 21.4052V2.59441C20.6725 1.87792 20.0916 1.29709 19.3752 1.29709H17.4292C17.2501 1.29709 17.1049 1.15188 17.1049 0.972766C17.1049 0.793656 17.2501 0.648438 17.4292 0.648438H19.3752C20.4494 0.649516 21.32 1.52013 21.3211 2.59441V21.4052C21.32 22.4795 20.4494 23.3501 19.3752 23.3512Z" fill="#3366CC"/>
<path d="M11.027 14.9234C8.01152 14.9232 5.56713 12.4786 5.56732 9.46309C5.56751 6.44762 8.01218 4.00323 11.0277 4.00342C14.043 4.00361 16.4873 6.44809 16.4873 9.46342C16.4839 12.4776 14.0412 14.9202 11.027 14.9234ZM11.027 4.65207C8.36974 4.65226 6.21579 6.8065 6.21598 9.46375C6.21617 12.121 8.3704 14.2749 11.0277 14.2748C13.6848 14.2746 15.8387 12.1205 15.8387 9.46342C15.8357 6.80734 13.6831 4.65493 11.027 4.65207Z" fill="#3366CC"/>
<path d="M11.027 14.9234C9.37812 14.9234 8.08667 12.5234 8.08667 9.46342C8.08667 6.40342 9.37845 4.00342 11.027 4.00342C12.6755 4.00342 13.967 6.40342 13.967 9.46342C13.967 12.5234 12.6759 14.9234 11.027 14.9234ZM11.027 4.65207C9.78486 4.65207 8.73533 6.8552 8.73533 9.46342C8.73533 12.0716 9.78518 14.2748 11.027 14.2748C12.2688 14.2748 13.3183 12.0713 13.3183 9.46342C13.3183 6.85553 12.2695 4.65207 11.027 4.65207Z" fill="#3366CC"/>
<path d="M11.027 14.9234C10.8479 14.9234 10.7027 14.7782 10.7027 14.5991V4.32775C10.7027 4.14864 10.8479 4.00342 11.027 4.00342C11.2061 4.00342 11.3514 4.14864 11.3514 4.32775V14.5991C11.3514 14.7782 11.2061 14.9234 11.027 14.9234Z" fill="#3366CC"/>
<path d="M8.85665 9.87097C5.84043 9.87097 5.74996 9.78144 5.66662 9.69941C5.60376 9.63697 5.56809 9.55222 5.56738 9.46363C5.56729 9.28452 5.71246 9.13925 5.89157 9.13916C5.93891 9.13916 5.98565 9.14947 6.02859 9.16944C6.67724 9.26347 12.5417 9.20188 16.1572 9.1393C16.334 9.1423 16.4782 9.28161 16.4874 9.4581C16.4905 9.63711 16.3479 9.78472 16.1689 9.78796C12.7064 9.84763 10.3988 9.87097 8.85665 9.87097Z" fill="#3366CC"/>
<path d="M16.4887 17.8313H5.56603C5.38692 17.8313 5.2417 17.6861 5.2417 17.5069C5.2417 17.3278 5.38692 17.1826 5.56603 17.1826H16.4886C16.6677 17.1826 16.8129 17.3278 16.8129 17.5069C16.813 17.6861 16.6678 17.8313 16.4887 17.8313Z" fill="#3366CC"/>
<path d="M14.9189 19.9963H7.13512C6.95601 19.9963 6.81079 19.8511 6.81079 19.672C6.81079 19.4929 6.95601 19.3477 7.13512 19.3477H14.9189C15.098 19.3477 15.2432 19.4929 15.2432 19.672C15.2432 19.8511 15.098 19.9963 14.9189 19.9963Z" fill="#3366CC"/>
<path d="M15.3406 7.00559H6.71355C6.53444 7.00559 6.38922 6.86037 6.38922 6.68126C6.38922 6.50215 6.53444 6.35693 6.71355 6.35693H15.3406C15.5197 6.35693 15.6649 6.50215 15.6649 6.68126C15.6649 6.86037 15.5197 7.00559 15.3406 7.00559Z" fill="#3366CC"/>
<path d="M15.2569 12.6965H6.79784C6.61873 12.6965 6.47351 12.5513 6.47351 12.3722C6.47351 12.1931 6.61873 12.0479 6.79784 12.0479H15.2569C15.436 12.0479 15.5812 12.1931 15.5812 12.3722C15.5812 12.5513 15.436 12.6965 15.2569 12.6965Z" fill="#3366CC"/>
</svg>
