<svg width="32" height="32" viewBox="0 0 32 32" fill="none" xmlns="http://www.w3.org/2000/svg">
<circle cx="16" cy="16" r="16" fill="url(#paint0_linear_2428_6429)" fill-opacity="0.15"/>
<path d="M16.0006 8.4707C13.6476 8.4707 11.7653 10.3531 11.7653 12.706V14.5884C10.9653 14.5884 10.3535 15.2001 10.3535 16.0001V22.1178C10.3535 22.9178 10.9653 23.5295 11.7653 23.5295H20.2359C21.0359 23.5295 21.6476 22.9178 21.6476 22.1178V16.0001C21.6476 15.2001 21.0359 14.5884 20.2359 14.5884V12.706C20.2359 10.3531 18.3535 8.4707 16.0006 8.4707ZM20.7065 16.0001V22.1178C20.7065 22.4001 20.5182 22.5884 20.2359 22.5884H11.7653C11.4829 22.5884 11.2947 22.4001 11.2947 22.1178V16.0001C11.2947 15.7178 11.4829 15.5295 11.7653 15.5295H20.2359C20.5182 15.5295 20.7065 15.7178 20.7065 16.0001ZM12.7065 14.5884V12.706C12.7065 10.8707 14.1653 9.41188 16.0006 9.41188C17.8359 9.41188 19.2947 10.8707 19.2947 12.706V14.5884H12.7065Z" fill="url(#paint1_linear_2428_6429)"/>
<path d="M15.9997 16.9414C15.1997 16.9414 14.5879 17.5532 14.5879 18.3532C14.5879 18.9649 14.9644 19.4826 15.5291 19.6708V20.7061C15.5291 20.9885 15.7173 21.1767 15.9997 21.1767C16.282 21.1767 16.4702 20.9885 16.4702 20.7061V19.6708C17.0349 19.4826 17.4114 18.9649 17.4114 18.3532C17.4114 17.5532 16.7997 16.9414 15.9997 16.9414ZM15.9997 18.8238C15.7173 18.8238 15.5291 18.6355 15.5291 18.3532C15.5291 18.0708 15.7173 17.8826 15.9997 17.8826C16.282 17.8826 16.4702 18.0708 16.4702 18.3532C16.4702 18.6355 16.282 18.8238 15.9997 18.8238Z" fill="url(#paint2_linear_2428_6429)"/>
<defs>
<linearGradient id="paint0_linear_2428_6429" x1="5.96046e-08" y1="32" x2="32.3897" y2="31.4621" gradientUnits="userSpaceOnUse">
<stop stop-color="#3366CC"/>
<stop offset="1" stop-color="#0099FF"/>
</linearGradient>
<linearGradient id="paint1_linear_2428_6429" x1="10.3535" y1="23.5295" x2="21.7865" y2="23.3871" gradientUnits="userSpaceOnUse">
<stop stop-color="#3366CC"/>
<stop offset="1" stop-color="#0099FF"/>
</linearGradient>
<linearGradient id="paint2_linear_2428_6429" x1="14.5879" y1="21.1767" x2="17.4462" y2="21.1451" gradientUnits="userSpaceOnUse">
<stop stop-color="#3366CC"/>
<stop offset="1" stop-color="#0099FF"/>
</linearGradient>
</defs>
</svg>
