<svg width="26" height="26" viewBox="0 0 26 26" fill="none" xmlns="http://www.w3.org/2000/svg">
<path d="M17.55 16.9002C17.3776 16.9002 17.2123 16.9687 17.0904 17.0906C16.9685 17.2125 16.9 17.3778 16.9 17.5502C16.9 17.7226 16.9685 17.8879 17.0904 18.0098C17.2123 18.1317 17.3776 18.2002 17.55 18.2002H20.15C20.3224 18.2002 20.4877 18.1317 20.6096 18.0098C20.7315 17.8879 20.8 17.7226 20.8 17.5502C20.8 17.3778 20.7315 17.2125 20.6096 17.0906C20.4877 16.9687 20.3224 16.9002 20.15 16.9002H17.55ZM2.59998 8.7752C2.59998 7.82705 2.97663 6.91773 3.64707 6.24729C4.31751 5.57685 5.22683 5.2002 6.17498 5.2002H19.825C20.7731 5.2002 21.6824 5.57685 22.3529 6.24729C23.0233 6.91773 23.4 7.82705 23.4 8.7752V17.2252C23.4 18.1733 23.0233 19.0827 22.3529 19.7531C21.6824 20.4235 20.7731 20.8002 19.825 20.8002H6.17498C5.22683 20.8002 4.31751 20.4235 3.64707 19.7531C2.97663 19.0827 2.59998 18.1733 2.59998 17.2252V8.7752ZM6.17498 6.5002C5.57161 6.5002 4.99295 6.73988 4.56631 7.16653C4.13966 7.59317 3.89998 8.17183 3.89998 8.7752V10.4002H22.1V8.7752C22.1 8.17183 21.8603 7.59317 21.4336 7.16653C21.007 6.73988 20.4283 6.5002 19.825 6.5002H6.17498ZM22.1 11.7002H3.89998V17.2252C3.89998 18.481 4.91918 19.5002 6.17498 19.5002H19.825C20.4283 19.5002 21.007 19.2605 21.4336 18.8339C21.8603 18.4072 22.1 17.8286 22.1 17.2252V11.7002Z" fill="#FFBF00"/>
</svg>
