<svg width="22" height="16" viewBox="0 0 22 16" fill="none" xmlns="http://www.w3.org/2000/svg">
<path d="M15.5501 11.9002C15.3777 11.9002 15.2124 11.9687 15.0905 12.0906C14.9686 12.2125 14.9001 12.3778 14.9001 12.5502C14.9001 12.7226 14.9686 12.8879 15.0905 13.0098C15.2124 13.1317 15.3777 13.2002 15.5501 13.2002H18.1501C18.3225 13.2002 18.4878 13.1317 18.6097 13.0098C18.7316 12.8879 18.8001 12.7226 18.8001 12.5502C18.8001 12.3778 18.7316 12.2125 18.6097 12.0906C18.4878 11.9687 18.3225 11.9002 18.1501 11.9002H15.5501ZM0.600098 3.7752C0.600098 2.82705 0.976748 1.91773 1.64719 1.24729C2.31763 0.576846 3.22695 0.200195 4.1751 0.200195H17.8251C18.7732 0.200195 19.6826 0.576846 20.353 1.24729C21.0234 1.91773 21.4001 2.82705 21.4001 3.7752V12.2252C21.4001 13.1733 21.0234 14.0827 20.353 14.7531C19.6826 15.4235 18.7732 15.8002 17.8251 15.8002H4.1751C3.22695 15.8002 2.31763 15.4235 1.64719 14.7531C0.976748 14.0827 0.600098 13.1733 0.600098 12.2252V3.7752ZM4.1751 1.5002C3.57173 1.5002 2.99308 1.73988 2.56643 2.16653C2.13978 2.59317 1.9001 3.17183 1.9001 3.7752V5.4002H20.1001V3.7752C20.1001 3.17183 19.8604 2.59317 19.4338 2.16653C19.0071 1.73988 18.4285 1.5002 17.8251 1.5002H4.1751ZM20.1001 6.7002H1.9001V12.2252C1.9001 13.481 2.9193 14.5002 4.1751 14.5002H17.8251C18.4285 14.5002 19.0071 14.2605 19.4338 13.8339C19.8604 13.4072 20.1001 12.8286 20.1001 12.2252V6.7002Z" fill="#12AF98"/>
</svg>
