<svg width="46" height="41" viewBox="0 0 46 41" fill="none" xmlns="http://www.w3.org/2000/svg">
<rect width="46" height="41" rx="10" fill="#F5F7FE"/>
<g clip-path="url(#clip0_2193_7576)">
<path d="M31.7788 14.2173C31.8228 13.8596 31.8458 13.4953 31.8458 13.1257C31.8458 10.0187 29.3271 7.5 26.2201 7.5H16.8184C16.227 7.5 15.7221 7.92707 15.624 8.51024L12.1597 29.1008C12.0354 29.8396 12.6049 30.5129 13.3541 30.5129H16.7925C17.3839 30.5129 17.8984 30.0862 17.9964 29.503C17.9964 29.503 18.0022 29.4688 18.0125 29.4072H18.0126L17.5334 32.2554C17.4239 32.9065 17.9259 33.5 18.5862 33.5H21.5943C22.1156 33.5 22.5606 33.1236 22.6471 32.6096L23.5017 27.5304C23.649 26.6548 24.407 26.0137 25.2948 26.0137H26.0851C30.3776 26.0137 33.8573 22.5339 33.8573 18.2415C33.8573 16.5804 33.0363 15.1122 31.7788 14.2173Z" fill="#002987"/>
<path d="M31.778 14.2173C31.24 18.5936 27.5101 21.9822 22.9885 21.9822H20.3649C19.7727 21.9822 19.2613 22.3767 19.1009 22.9343L17.5326 32.2552C17.4231 32.9064 17.9251 33.4999 18.5854 33.4999H21.5935C22.1148 33.4999 22.5598 33.1235 22.6463 32.6095L23.5009 27.5304C23.6482 26.6548 24.4062 26.0137 25.294 26.0137H26.0842C30.3768 26.0137 33.8565 22.5339 33.8565 18.2414C33.8565 16.5804 33.0355 15.1122 31.778 14.2173Z" fill="#0085CC"/>
<path d="M20.3656 21.9825H22.9892C27.5109 21.9825 31.2408 18.5939 31.7787 14.2176C30.9719 13.6435 29.986 13.3047 28.9203 13.3047H22.0724C21.2928 13.3047 20.6271 13.8677 20.4977 14.6365L19.1016 22.9346C19.262 22.3769 19.7734 21.9825 20.3656 21.9825Z" fill="#00186A"/>
</g>
<defs>
<clipPath id="clip0_2193_7576">
<rect width="26" height="26" fill="white" transform="translate(10 7.5)"/>
</clipPath>
</defs>
</svg>
