<svg width="32" height="32" viewBox="0 0 32 32" fill="none" xmlns="http://www.w3.org/2000/svg">
<circle cx="16" cy="16" r="16" fill="url(#paint0_linear_2428_6440)" fill-opacity="0.15"/>
<g clip-path="url(#clip0_2428_6440)">
<path d="M16 8C11.5784 8 8 11.578 8 16C8 20.4215 11.578 24 16 24C20.4216 24 24 20.422 24 16C24 11.5784 20.422 8 16 8ZM16 22.8837C12.2043 22.8837 9.11628 19.7957 9.11628 16C9.11628 12.2043 12.2043 9.11628 16 9.11628C19.7957 9.11628 22.8837 12.2043 22.8837 16C22.8837 19.7957 19.7957 22.8837 16 22.8837Z" fill="url(#paint1_linear_2428_6440)"/>
<path d="M15.7618 18.1226C15.3196 18.1226 14.9615 18.4912 14.9615 18.9334C14.9615 19.3652 15.309 19.7443 15.7618 19.7443C16.2147 19.7443 16.5727 19.3652 16.5727 18.9334C16.5727 18.4912 16.2041 18.1226 15.7618 18.1226ZM15.8987 11.9834C14.4771 11.9834 13.8242 12.8259 13.8242 13.3945C13.8242 13.8052 14.1717 13.9947 14.456 13.9947C15.0247 13.9947 14.793 13.1839 15.8671 13.1839C16.3936 13.1839 16.8149 13.4156 16.8149 13.9C16.8149 14.4686 16.2252 14.795 15.8777 15.0899C15.5722 15.3531 15.1721 15.7849 15.1721 16.6905C15.1721 17.2381 15.3196 17.396 15.7513 17.396C16.2673 17.396 16.3726 17.1644 16.3726 16.9642C16.3726 16.4167 16.3831 16.1008 16.9623 15.648C17.2466 15.4268 18.1417 14.7107 18.1417 13.7209C18.1417 12.7311 17.2466 11.9834 15.8987 11.9834Z" fill="url(#paint2_linear_2428_6440)"/>
</g>
<defs>
<linearGradient id="paint0_linear_2428_6440" x1="5.96046e-08" y1="32" x2="32.3897" y2="31.4621" gradientUnits="userSpaceOnUse">
<stop stop-color="#3366CC"/>
<stop offset="1" stop-color="#0099FF"/>
</linearGradient>
<linearGradient id="paint1_linear_2428_6440" x1="8" y1="24" x2="24.1948" y2="23.731" gradientUnits="userSpaceOnUse">
<stop stop-color="#3366CC"/>
<stop offset="1" stop-color="#0099FF"/>
</linearGradient>
<linearGradient id="paint2_linear_2428_6440" x1="13.8242" y1="19.7443" x2="18.1951" y2="19.7039" gradientUnits="userSpaceOnUse">
<stop stop-color="#3366CC"/>
<stop offset="1" stop-color="#0099FF"/>
</linearGradient>
<clipPath id="clip0_2428_6440">
<rect width="16" height="16" fill="white" transform="translate(8 8)"/>
</clipPath>
</defs>
</svg>
