<svg width="32" height="32" viewBox="0 0 32 32" fill="none" xmlns="http://www.w3.org/2000/svg">
<circle cx="16" cy="16" r="16" fill="url(#paint0_linear_2428_6417)" fill-opacity="0.15"/>
<path d="M15.9983 15.6163C16.8689 15.6152 17.7034 15.269 18.319 14.6534C18.9345 14.0379 19.2808 13.2033 19.2818 12.3328C19.2818 10.5228 17.8088 9.0498 15.9983 9.0498C14.1878 9.0498 12.7148 10.5228 12.7148 12.3333C12.7148 14.1438 14.1878 15.6163 15.9983 15.6163ZM15.9983 9.9498C17.3128 9.9498 18.3818 11.0188 18.3818 12.3333C18.3818 13.6478 17.3128 14.7168 15.9983 14.7168C14.6838 14.7168 13.6148 13.6473 13.6148 12.3333C13.6148 11.0193 14.6838 9.9498 15.9983 9.9498Z" fill="url(#paint1_linear_2428_6417)"/>
<path d="M20.4161 17.8694C19.2401 16.9749 17.6711 16.4824 15.9966 16.4824C14.3226 16.4824 12.7546 16.9744 11.5806 17.8684C10.8501 18.4244 10.4141 19.3294 10.4141 20.2899V21.5884C10.4146 21.9493 10.5582 22.2953 10.8135 22.5504C11.0687 22.8055 11.4147 22.949 11.7756 22.9494H20.2231C20.5835 22.9494 20.9293 22.8065 21.1846 22.5519C21.4398 22.2973 21.5836 21.9519 21.5846 21.5914V20.2914C21.5841 19.3314 21.1476 18.4264 20.4161 17.8694ZM20.6836 21.5914C20.6832 21.7133 20.6344 21.8301 20.5479 21.9161C20.4615 22.002 20.3445 22.0502 20.2226 22.0499H11.7756C11.6533 22.0498 11.5362 22.0012 11.4497 21.9148C11.3633 21.8283 11.3147 21.7111 11.3146 21.5889V20.2904C11.3146 19.6094 11.6176 18.9719 12.1256 18.5849C13.1436 17.8099 14.5186 17.3829 15.9966 17.3829C17.4751 17.3829 18.8511 17.8104 19.8711 18.5864C20.3801 18.9734 20.6836 19.6114 20.6836 20.2919V21.5914Z" fill="url(#paint2_linear_2428_6417)"/>
<defs>
<linearGradient id="paint0_linear_2428_6417" x1="5.96046e-08" y1="32" x2="32.3897" y2="31.4621" gradientUnits="userSpaceOnUse">
<stop stop-color="#3366CC"/>
<stop offset="1" stop-color="#0099FF"/>
</linearGradient>
<linearGradient id="paint1_linear_2428_6417" x1="12.7148" y1="15.6163" x2="19.3618" y2="15.5059" gradientUnits="userSpaceOnUse">
<stop stop-color="#3366CC"/>
<stop offset="1" stop-color="#0099FF"/>
</linearGradient>
<linearGradient id="paint2_linear_2428_6417" x1="10.4141" y1="22.9494" x2="21.7144" y2="22.6252" gradientUnits="userSpaceOnUse">
<stop stop-color="#3366CC"/>
<stop offset="1" stop-color="#0099FF"/>
</linearGradient>
</defs>
</svg>
