<svg width="284" height="62" viewBox="0 0 284 62" fill="none" xmlns="http://www.w3.org/2000/svg">
<g clip-path="url(#clip0_494_4572)">
<path d="M63.22 6.24982C63.88 4.25982 64.89 2.76982 66.23 1.78982C67.57 0.809824 69.23 0.319824 71.19 0.319824C75.12 0.319824 77.82 2.27982 79.29 6.20982L98.78 56.1898C99.21 57.1698 98.88 57.6598 97.78 57.6598H86.74C85.9 57.6598 85.35 57.2898 85.09 56.5298L81.06 45.9198H61.09L57.02 56.6198C56.79 57.3098 56.25 57.6598 55.42 57.6598H44.55C44.03 57.6598 43.69 57.5398 43.53 57.2898C43.37 57.0398 43.39 56.7198 43.59 56.3198L63.22 6.24982ZM68.59 22.6198L64.56 34.6198H77.68L73.52 22.7998C72.97 21.4098 72.49 20.0698 72.07 18.7498C71.65 17.4398 71.3 16.1398 71.01 14.8698L68.58 22.7498V22.6198H68.59Z" fill="black"/>
<path d="M136.08 0.319824C141.94 0.319824 146.69 1.79982 150.35 4.75982C154.51 8.12982 156.59 12.6898 156.59 18.4598C156.59 26.9498 152.95 32.6098 145.66 35.4498L159.1 56.0898C159.57 57.1398 159.32 57.6698 158.35 57.6698H146.23C145.47 57.6698 144.94 57.4698 144.65 57.0498L131.92 37.4198H122.48V56.4298C122.48 57.2498 122.09 57.6598 121.29 57.6598H110.62C109.86 57.6598 109.48 57.2498 109.48 56.4298V7.77982C109.48 2.79982 111.81 0.319824 116.46 0.319824H136.09H136.08ZM135.82 25.6098C140.88 25.6098 143.42 23.3098 143.42 18.7198C143.42 14.7098 140.89 12.6998 135.82 12.6998H122.47V25.6098H135.82Z" fill="black"/>
<path d="M176.25 8.13006V8.21006C180.78 2.94006 186.81 0.310059 194.35 0.310059C201.89 0.310059 207.94 2.94006 212.53 8.21006C216.95 13.3901 219.16 20.3201 219.16 28.9801C219.16 37.6401 216.68 44.8801 211.73 50.0901L215.38 55.1901C215.66 55.5001 215.77 55.8101 215.7 56.1001C215.63 56.4001 215.4 56.6501 215 56.8401L207.52 61.7301C207.21 62.0401 206.9 62.1701 206.59 62.1101C206.28 62.0501 206.04 61.8401 205.87 61.4701L202.43 56.4601C201.27 56.8801 200.02 57.1901 198.69 57.3701C197.36 57.5501 195.91 57.6501 194.36 57.6501C186.83 57.6501 180.79 55.0601 176.26 49.8801C171.76 44.6701 169.51 37.7001 169.51 28.9801C169.51 20.2601 171.76 13.3301 176.26 8.21006V8.13006H176.25ZM194.35 12.3801C190.13 12.3801 186.99 14.0801 184.92 17.4801C183.99 18.9501 183.31 20.6401 182.88 22.5401C182.45 24.4401 182.24 26.5901 182.24 29.0001C182.24 34.1301 183.23 38.2301 185.21 41.3201C187.31 44.3501 190.24 46.0201 194 46.3301L195.4 46.1201L192.43 41.8701C192.26 41.5901 192.19 41.3101 192.22 41.0401C192.25 40.7701 192.42 40.5401 192.73 40.3401L200.12 35.5001C200.52 35.3001 200.85 35.2201 201.12 35.2701C201.39 35.3101 201.64 35.5001 201.86 35.8401L204.62 39.9601C205.84 37.5001 206.45 33.8401 206.45 29.0001C206.45 26.5701 206.24 24.3801 205.81 22.4401C205.39 20.5001 204.72 18.8101 203.81 17.3601C201.71 14.0501 198.56 12.3901 194.34 12.3901L194.35 12.3801Z" fill="black"/>
<path d="M2.1534 35.253L8.1042 32.765C9.12829 32.3368 10.3058 32.82 10.734 33.8441L17.608 50.2849C18.7228 52.9512 17.4611 56.0258 14.7948 57.1406C12.1285 58.2554 9.05386 56.9938 7.93906 54.3275L1.06508 37.8867C0.636904 36.8626 1.12008 35.6851 2.14417 35.2569L2.1534 35.253Z" fill="#FFBF00"/>
<path d="M27.66 6.43994C23.09 2.02994 17.16 -0.100055 11.28 -5.53036e-05C7.96001 0.0599447 4.65001 0.849945 1.60001 2.33994C0.23001 3.00994 -0.35999 4.63995 0.23001 6.04994L2.73001 12.0199C3.38001 13.5799 5.24001 14.2599 6.74001 13.4799C8.24001 12.6999 9.78001 12.3099 11.45 12.2699C14.18 12.1999 16.87 13.1999 18.89 15.0299C21.12 17.0399 22.38 19.8199 22.43 22.8099C22.48 25.7999 21.42 28.3899 19.43 30.4599L13.15 36.9799L18.3 49.2999L28.26 38.9699C32.67 34.3999 34.8 28.4699 34.69 22.5899C34.58 16.7099 32.23 10.8599 27.66 6.45994V6.43994Z" fill="#FFBF00"/>
<path d="M229.848 35.4234L235.789 32.9392C236.813 32.511 237.991 32.9942 238.419 34.0183L245.278 50.4222C246.389 53.0793 245.136 56.1501 242.47 57.2649C239.813 58.3758 236.742 57.1234 235.627 54.4571L228.769 38.0532C228.34 37.0291 228.824 35.8516 229.848 35.4234Z" fill="#FFBF00"/>
<path d="M239.46 38.5599V40.5299H242.32V41.7499H239.46V44.5799H238.35V37.4399H242.63V38.5499H239.46V38.5599Z" fill="black"/>
<path d="M243.84 38.7898C243.71 38.6498 243.64 38.4898 243.64 38.2798C243.64 38.0698 243.71 37.9098 243.84 37.7698C243.97 37.6398 244.13 37.5698 244.32 37.5698C244.51 37.5698 244.67 37.6398 244.8 37.7698C244.93 37.9098 245 38.0698 245 38.2798C245 38.4898 244.93 38.6498 244.8 38.7898C244.67 38.9198 244.51 38.9898 244.32 38.9898C244.13 38.9898 243.97 38.9198 243.84 38.7898ZM244.9 39.6598V44.4298H243.74V39.6598H244.9Z" fill="black"/>
<path d="M246.29 39.5799H247.14L247.23 40.0999C247.68 39.6199 248.17 39.3799 248.72 39.3799C249.24 39.3799 249.69 39.5299 250.06 39.8199C250.43 40.1099 250.62 40.5599 250.62 41.1699V44.3799H249.41V41.5399C249.41 41.2599 249.34 41.0299 249.18 40.8499C249.02 40.6699 248.81 40.5799 248.54 40.5799C248.27 40.5799 248.03 40.6699 247.84 40.8599C247.65 41.0499 247.56 41.2699 247.56 41.5399V44.3899H246.34L246.3 39.5799H246.29Z" fill="black"/>
<path d="M252.7 44.0999C252.31 43.8799 252 43.5799 251.77 43.1899C251.54 42.8099 251.43 42.3799 251.43 41.9299C251.43 41.4799 251.54 41.0399 251.77 40.6399C252 40.2499 252.3 39.9399 252.7 39.7099C253.1 39.4799 253.52 39.3699 253.98 39.3699C254.53 39.3699 255.03 39.5299 255.46 39.8499V37.1699H256.56V44.3699H255.46V43.9399C255.02 44.2599 254.52 44.4299 253.98 44.4299C253.51 44.4299 253.09 44.3199 252.7 44.0999ZM254.6 43.2099C254.81 43.1099 254.98 42.9599 255.12 42.7399C255.26 42.5299 255.33 42.2599 255.33 41.9299C255.33 41.5999 255.26 41.3299 255.12 41.1099C254.98 40.8899 254.8 40.7399 254.59 40.6399C254.38 40.5399 254.18 40.4899 253.97 40.4899C253.76 40.4899 253.55 40.5399 253.34 40.6399C253.13 40.7399 252.96 40.8899 252.81 41.1099C252.67 41.3299 252.6 41.5999 252.6 41.9299C252.6 42.2599 252.67 42.5299 252.81 42.7399C252.95 42.9499 253.13 43.1099 253.34 43.2099C253.55 43.3099 253.76 43.3599 253.97 43.3599C254.18 43.3599 254.39 43.3099 254.59 43.2099H254.6Z" fill="black"/>
<path d="M258.44 43.5L257.83 45.33H256.81L257.42 43.5H258.44Z" fill="black"/>
<path d="M239.04 48.0698L240.45 51.1498L241.85 48.0698H243.11L241.02 52.1998V54.9998H239.9V52.1998L237.81 48.0698H239.06H239.04Z" fill="black"/>
<path d="M244.25 54.8601C243.86 54.6301 243.55 54.3301 243.32 53.9301C243.09 53.5401 242.98 53.1101 242.98 52.6501C242.98 52.1901 243.09 51.7601 243.32 51.3701C243.55 50.9801 243.85 50.6701 244.25 50.4401C244.64 50.2101 245.07 50.1001 245.53 50.1001C245.99 50.1001 246.41 50.2101 246.81 50.4401C247.2 50.6701 247.51 50.9701 247.74 51.3701C247.97 51.7601 248.08 52.1901 248.08 52.6501C248.08 53.1101 247.97 53.5301 247.74 53.9301C247.51 54.3201 247.21 54.6301 246.81 54.8601C246.42 55.0901 245.99 55.2001 245.53 55.2001C245.07 55.2001 244.64 55.0901 244.25 54.8601ZM246.16 53.9401C246.37 53.8401 246.54 53.6901 246.68 53.4701C246.82 53.2601 246.89 52.9901 246.89 52.6601C246.89 52.3301 246.82 52.0601 246.68 51.8401C246.54 51.6201 246.36 51.4701 246.15 51.3701C245.94 51.2701 245.74 51.2201 245.53 51.2201C245.32 51.2201 245.11 51.2701 244.9 51.3701C244.69 51.4701 244.52 51.6201 244.37 51.8401C244.23 52.0601 244.16 52.3301 244.16 52.6601C244.16 52.9901 244.23 53.2601 244.37 53.4701C244.51 53.6801 244.69 53.8401 244.9 53.9401C245.11 54.0401 245.32 54.0901 245.53 54.0901C245.74 54.0901 245.95 54.0401 246.15 53.9401H246.16Z" fill="black"/>
<path d="M253.24 54.9997H252.47L252.35 54.6397C251.96 55.0197 251.5 55.2097 250.97 55.2097C250.34 55.2097 249.82 55.0397 249.41 54.7097C249 54.3797 248.81 53.8297 248.81 53.0697V50.2197H250.03V53.0797C250.03 53.3497 250.11 53.5797 250.3 53.7597C250.49 53.9497 250.72 54.0397 251 54.0397C251.28 54.0397 251.51 53.9497 251.7 53.7597C251.89 53.5697 251.98 53.3497 251.98 53.0797V50.2197H253.2V52.9397L253.22 55.0097L253.24 54.9997Z" fill="black"/>
<path d="M255.84 51.4701C255.63 51.6501 255.53 51.9001 255.53 52.2201L255.51 55.0101H254.31L254.32 50.2101H255.3L255.33 50.6901C255.82 50.2301 256.38 50.0101 257.01 50.0301V51.1601C256.44 51.1801 256.05 51.2801 255.84 51.4601V51.4701Z" fill="black"/>
<path d="M262.15 53.5901C262.4 53.8201 262.74 53.9301 263.2 53.9301C263.57 53.9301 263.87 53.8601 264.11 53.7101C264.35 53.5601 264.45 53.3301 264.43 53.0001C264.43 52.8401 264.32 52.6801 264.11 52.5201C263.9 52.3501 263.56 52.2501 263.06 52.2001C262.21 52.1201 261.6 51.8701 261.23 51.4701C260.86 51.0701 260.67 50.5801 260.67 50.0201C260.67 49.6501 260.76 49.3001 260.93 48.9801C261.11 48.6601 261.37 48.3901 261.73 48.1901C262.09 47.9901 262.53 47.8901 263.06 47.8901C263.61 47.8901 264.09 48.0001 264.48 48.2301C264.87 48.4601 265.17 48.7501 265.37 49.1001C265.57 49.4601 265.68 49.8301 265.69 50.2201H264.45C264.42 49.9201 264.3 49.6601 264.07 49.4301C263.84 49.2001 263.56 49.0801 263.22 49.0801C262.88 49.0801 262.58 49.1701 262.34 49.3501C262.1 49.5301 261.98 49.7401 261.98 49.9901C261.98 50.2701 262.1 50.4801 262.33 50.6401C262.57 50.8001 262.9 50.8901 263.32 50.9201C264.22 51.0001 264.87 51.2201 265.25 51.5801C265.63 51.9401 265.82 52.3901 265.82 52.9201C265.82 53.3001 265.73 53.6501 265.54 53.9901C265.35 54.3201 265.06 54.5901 264.66 54.8001C264.26 55.0101 263.77 55.1101 263.17 55.1101C262.62 55.1101 262.14 55.0001 261.74 54.7701C261.34 54.5401 261.04 54.2501 260.82 53.8901C260.6 53.5301 260.49 53.1501 260.47 52.7501H261.7C261.74 53.0801 261.88 53.3601 262.13 53.5901H262.15Z" fill="black"/>
<path d="M270.47 50.3998C270.86 50.6198 271.17 50.9198 271.4 51.3098C271.63 51.6898 271.74 52.1198 271.74 52.5698C271.74 53.0198 271.63 53.4598 271.4 53.8498C271.17 54.2398 270.87 54.5498 270.47 54.7798C270.08 55.0098 269.65 55.1198 269.19 55.1198C268.64 55.1198 268.15 54.9598 267.71 54.6398V57.6598H266.61V50.1198H267.71V50.5598C268.16 50.2398 268.65 50.0698 269.19 50.0698C269.66 50.0698 270.08 50.1798 270.47 50.3998ZM268.57 51.2898C268.36 51.3898 268.19 51.5398 268.05 51.7598C267.91 51.9698 267.84 52.2398 267.84 52.5698C267.84 52.8998 267.91 53.1698 268.05 53.3898C268.19 53.6098 268.37 53.7598 268.58 53.8598C268.79 53.9598 268.99 54.0098 269.2 54.0098C269.41 54.0098 269.62 53.9598 269.83 53.8598C270.04 53.7598 270.21 53.6098 270.36 53.3898C270.51 53.1698 270.57 52.8998 270.57 52.5698C270.57 52.2398 270.5 51.9698 270.36 51.7598C270.22 51.5498 270.04 51.3898 269.83 51.2898C269.62 51.1898 269.41 51.1398 269.2 51.1398C268.99 51.1398 268.78 51.1898 268.58 51.2898H268.57Z" fill="black"/>
<path d="M273.76 54.8601C273.37 54.6301 273.06 54.3301 272.83 53.9301C272.6 53.5401 272.49 53.1101 272.49 52.6501C272.49 52.1901 272.6 51.7601 272.83 51.3701C273.06 50.9801 273.36 50.6701 273.76 50.4401C274.15 50.2101 274.58 50.1001 275.04 50.1001C275.5 50.1001 275.92 50.2101 276.32 50.4401C276.71 50.6701 277.02 50.9701 277.25 51.3701C277.48 51.7601 277.59 52.1901 277.59 52.6501C277.59 53.1101 277.48 53.5301 277.25 53.9301C277.02 54.3201 276.72 54.6301 276.32 54.8601C275.93 55.0901 275.5 55.2001 275.04 55.2001C274.58 55.2001 274.15 55.0901 273.76 54.8601ZM275.67 53.9401C275.88 53.8401 276.05 53.6901 276.19 53.4701C276.33 53.2601 276.4 52.9901 276.4 52.6601C276.4 52.3301 276.33 52.0601 276.19 51.8401C276.05 51.6201 275.87 51.4701 275.66 51.3701C275.45 51.2701 275.25 51.2201 275.04 51.2201C274.83 51.2201 274.62 51.2701 274.41 51.3701C274.2 51.4701 274.03 51.6201 273.88 51.8401C273.74 52.0601 273.67 52.3301 273.67 52.6601C273.67 52.9901 273.74 53.2601 273.88 53.4701C274.02 53.6801 274.2 53.8401 274.41 53.9401C274.62 54.0401 274.83 54.0901 275.04 54.0901C275.25 54.0901 275.46 54.0401 275.66 53.9401H275.67Z" fill="black"/>
<path d="M278.89 54.9998V51.6198H278.14V50.4098H278.89V47.8198H280.1V50.4098H280.93V51.6198H280.1V54.9998H278.89Z" fill="black"/>
<path d="M282.34 54.9998C282.22 54.8698 282.15 54.6998 282.15 54.4898C282.15 54.2798 282.21 54.1198 282.34 53.9798C282.46 53.8498 282.62 53.7798 282.81 53.7798C283 53.7798 283.16 53.8498 283.28 53.9798C283.4 54.1198 283.47 54.2798 283.47 54.4898C283.47 54.6998 283.41 54.8598 283.28 54.9998C283.16 55.1398 283 55.1998 282.81 55.1998C282.62 55.1998 282.46 55.1298 282.34 54.9998Z" fill="black"/>
</g>
<defs>
<clipPath id="clip0_494_4572">
<rect width="283.46" height="61.95" fill="white"/>
</clipPath>
</defs>
</svg>
