<svg width="32" height="32" viewBox="0 0 32 32" fill="none" xmlns="http://www.w3.org/2000/svg">
<path d="M3 11C3.26522 11 3.51957 10.8946 3.70711 10.7071C3.89464 10.5196 4 10.2652 4 10V5C4 4.73478 4.10536 4.48043 4.29289 4.29289C4.48043 4.10536 4.73478 4 5 4H10.5C10.7652 4 11.0196 3.89464 11.2071 3.70711C11.3946 3.51957 11.5 3.26522 11.5 3C11.5 2.73478 11.3946 2.48043 11.2071 2.29289C11.0196 2.10536 10.7652 2 10.5 2H5C4.20435 2 3.44129 2.31607 2.87868 2.87868C2.31607 3.44129 2 4.20435 2 5V10C2 10.2652 2.10536 10.5196 2.29289 10.7071C2.48043 10.8946 2.73478 11 3 11Z" fill="white"/>
<path d="M27 2H21.5C21.2348 2 20.9804 2.10536 20.7929 2.29289C20.6054 2.48043 20.5 2.73478 20.5 3C20.5 3.26522 20.6054 3.51957 20.7929 3.70711C20.9804 3.89464 21.2348 4 21.5 4H27C27.2652 4 27.5196 4.10536 27.7071 4.29289C27.8946 4.48043 28 4.73478 28 5V10C28 10.2652 28.1054 10.5196 28.2929 10.7071C28.4804 10.8946 28.7348 11 29 11C29.2652 11 29.5196 10.8946 29.7071 10.7071C29.8946 10.5196 30 10.2652 30 10V5C30 4.20435 29.6839 3.44129 29.1213 2.87868C28.5587 2.31607 27.7956 2 27 2Z" fill="white"/>
<path d="M29 21C28.7348 21 28.4804 21.1054 28.2929 21.2929C28.1054 21.4804 28 21.7348 28 22V27C28 27.2652 27.8946 27.5196 27.7071 27.7071C27.5196 27.8946 27.2652 28 27 28H21.5C21.2348 28 20.9804 28.1054 20.7929 28.2929C20.6054 28.4804 20.5 28.7348 20.5 29C20.5 29.2652 20.6054 29.5196 20.7929 29.7071C20.9804 29.8946 21.2348 30 21.5 30H27C27.7956 30 28.5587 29.6839 29.1213 29.1213C29.6839 28.5587 30 27.7956 30 27V22C30 21.7348 29.8946 21.4804 29.7071 21.2929C29.5196 21.1054 29.2652 21 29 21Z" fill="white"/>
<path d="M10.5 28H5C4.73478 28 4.48043 27.8946 4.29289 27.7071C4.10536 27.5196 4 27.2652 4 27V22C4 21.7348 3.89464 21.4804 3.70711 21.2929C3.51957 21.1054 3.26522 21 3 21C2.73478 21 2.48043 21.1054 2.29289 21.2929C2.10536 21.4804 2 21.7348 2 22V27C2 27.7956 2.31607 28.5587 2.87868 29.1213C3.44129 29.6839 4.20435 30 5 30H10.5C10.7652 30 11.0196 29.8946 11.2071 29.7071C11.3946 29.5196 11.5 29.2652 11.5 29C11.5 28.7348 11.3946 28.4804 11.2071 28.2929C11.0196 28.1054 10.7652 28 10.5 28Z" fill="white"/>
<path d="M29 15H3C2.73478 15 2.48043 15.1054 2.29289 15.2929C2.10536 15.4804 2 15.7348 2 16C2 16.2652 2.10536 16.5196 2.29289 16.7071C2.48043 16.8946 2.73478 17 3 17H29C29.2652 17 29.5196 16.8946 29.7071 16.7071C29.8946 16.5196 30 16.2652 30 16C30 15.7348 29.8946 15.4804 29.7071 15.2929C29.5196 15.1054 29.2652 15 29 15Z" fill="white"/>
</svg>
