<svg width="24" height="24" viewBox="0 0 24 24" fill="none" xmlns="http://www.w3.org/2000/svg">
<path d="M12 0C9.62663 0 7.30655 0.703788 5.33316 2.02236C3.35977 3.34094 1.8217 5.21508 0.913451 7.4078C0.00519941 9.60051 -0.232441 12.0133 0.230582 14.3411C0.693605 16.6689 1.83649 18.807 3.51472 20.4853C5.19295 22.1635 7.33115 23.3064 9.65892 23.7694C11.9867 24.2324 14.3995 23.9948 16.5922 23.0865C18.7849 22.1783 20.6591 20.6402 21.9776 18.6668C23.2962 16.6934 24 14.3734 24 12C23.9963 8.81853 22.7309 5.76841 20.4812 3.51877C18.2316 1.26912 15.1815 0.00366459 12 0ZM19.116 8.03538L9.94062 17.2662C9.76845 17.4395 9.53458 17.5375 9.29026 17.5387C9.04595 17.5399 8.81112 17.4442 8.63723 17.2726L4.89047 13.5803C4.73159 13.4058 4.64558 13.1771 4.6501 12.9412C4.65462 12.7052 4.74933 12.48 4.91477 12.3117C5.08021 12.1434 5.30382 12.0449 5.53964 12.0364C5.77547 12.0278 6.00561 12.11 6.18277 12.2658L9.27508 15.312L17.8071 6.73846C17.892 6.65009 17.9936 6.57951 18.1061 6.53084C18.2186 6.48217 18.3396 6.45639 18.4622 6.45499C18.5847 6.45359 18.7063 6.47661 18.8199 6.5227C18.9334 6.56879 19.0367 6.63704 19.1236 6.72345C19.2105 6.80986 19.2793 6.91271 19.326 7.026C19.3728 7.1393 19.3965 7.26076 19.3958 7.38331C19.3951 7.50586 19.37 7.62704 19.3219 7.73979C19.2739 7.85254 19.2039 7.95459 19.116 8.04V8.03538Z" fill="#FFBF00"/>
</svg>
