<svg width="24" height="24" viewBox="0 0 24 24" fill="none" xmlns="http://www.w3.org/2000/svg">
<g clip-path="url(#clip0_372_1235)">
<path d="M12 0C5.37257 0 0 5.37257 0 12C0 18.6274 5.37257 24 12 24C18.6274 24 24 18.6274 24 12C23.9929 5.37554 18.6245 0.00708147 12 0ZM12 22.2857C6.31933 22.2857 1.71427 17.6806 1.71427 12C1.71427 6.31933 6.31933 1.71427 12 1.71427C17.6806 1.71427 22.2857 6.31933 22.2857 12C22.2796 17.6781 17.6781 22.2796 12 22.2857Z" fill="#12AF98"/>
<path d="M11.9997 18.8571C15.7868 18.8571 18.8568 15.7871 18.8568 12C18.8568 8.21289 15.7868 5.14285 11.9997 5.14285C8.21262 5.14285 5.14258 8.21289 5.14258 12C5.14258 15.7871 8.21262 18.8571 11.9997 18.8571Z" fill="#12AF98"/>
</g>
<defs>
<clipPath id="clip0_372_1235">
<rect width="24" height="24" fill="white"/>
</clipPath>
</defs>
</svg>
