<svg width="226" height="128" viewBox="0 0 226 128" fill="none" xmlns="http://www.w3.org/2000/svg">
<path d="M102.35 4.40343L104.173 6.22643C109.034 1.36511 116.951 1.36511 121.821 6.22643L123.644 4.40343C117.772 -1.46781 108.221 -1.46781 102.35 4.40343Z" fill="#3366CC"/>
<path d="M105.26 7.31336L107.083 9.13636C110.343 5.87551 115.641 5.87551 118.893 9.13636L120.716 7.31336C116.454 3.05115 109.522 3.05115 105.26 7.31336Z" fill="#3366CC"/>
<path d="M108.178 10.2318L110.001 12.0548C111.653 10.403 114.332 10.403 115.984 12.0548L117.807 10.2318C115.153 7.57865 110.831 7.57865 108.178 10.2318Z" fill="#3366CC"/>
<path d="M151.083 31.8597L136.328 17.0875C133.803 14.5626 129.695 14.5626 127.17 17.0875L111.867 32.3732L114.195 34.4444L129.369 19.287C130.679 17.9776 132.819 17.9776 134.128 19.287L135.472 20.6393C134.659 21.5208 134.667 22.8902 135.523 23.7547L144.433 32.6728C145.289 33.5286 146.658 33.5458 147.548 32.7327L148.883 34.0678C149.149 34.3332 149.363 34.6413 149.525 34.9665C149.748 35.4201 149.867 35.9251 149.867 36.4472C149.867 37.3458 149.517 38.1931 148.883 38.8265L115.359 72.3165C114.049 73.626 111.91 73.626 110.6 72.3165L99.9534 61.661L98.584 63.3042L92.0537 57.0992C92.1479 57.4159 92.2677 57.7154 92.4046 58.015C92.7127 58.6483 93.1321 59.2303 93.6456 59.7438L108.401 74.5161C110.926 77.0409 115.034 77.0409 117.559 74.5161L151.083 41.026C152.307 39.8022 152.983 38.176 152.983 36.4472C152.983 34.7183 152.315 33.0921 151.091 31.8683L151.083 31.8597Z" fill="#0099FF"/>
<path d="M94.2618 15.1873C92.533 15.1873 90.9068 15.8548 89.683 17.0787L74.9107 31.8339C72.3859 34.3587 72.3859 38.4668 74.9107 40.9916L108.401 74.5159C109.625 75.7398 111.251 76.4159 112.98 76.4159C113.981 76.4159 114.957 76.1934 115.83 75.7569C116.463 75.4488 117.045 75.0294 117.558 74.5159L132.331 59.7608C134.856 57.236 134.856 53.1278 132.331 50.603L98.8407 17.0787C97.6168 15.8548 95.9907 15.1787 94.2618 15.1787V15.1873ZM130.131 52.8026C131.441 54.1121 131.441 56.2517 130.131 57.5612L115.359 72.3163C114.726 72.9497 113.878 73.3006 112.98 73.3006C112.081 73.3006 111.234 72.9497 110.6 72.3163L77.1103 38.7921C75.8008 37.4826 75.8008 35.3429 77.1103 34.0334L78.4625 32.6897C79.3441 33.5028 80.7135 33.4942 81.5779 32.6384L90.496 23.7288C91.3519 22.873 91.369 21.5036 90.5559 20.6135L91.8911 19.2783C92.1564 19.013 92.4645 18.799 92.7897 18.6364C93.2434 18.4139 93.7483 18.2941 94.2704 18.2941C95.169 18.2941 96.0163 18.645 96.6497 19.2783L130.14 52.8026H130.131Z" fill="#3366CC"/>
<path d="M0 127.383V97.8211H8.23343V127.383H0ZM7.42894 120.835L6.96676 111.455L19.6764 97.8125H28.8427L16.2529 111.541L11.5628 116.402L7.42037 120.835H7.42894ZM19.8048 127.383L10.1763 115.178L15.6281 109.35L29.5274 127.383H19.8133H19.8048Z" fill="#191919"/>
<path d="M40.123 127.383H31.7612V97.8211H40.123V127.383ZM52.0709 115.846H39.4811V108.922H52.0709V115.846ZM51.4804 97.8125H59.8422V127.374H51.4804V97.8125Z" fill="#191919"/>
<path d="M62.2129 127.383L75.2648 97.8213H83.4983L96.593 127.383H87.8889L77.6698 101.912H80.9649L70.7459 127.383H62.2129ZM69.3508 121.597L71.5076 115.469H85.9546L88.1114 121.597H69.3594H69.3508Z" fill="#191919"/>
<path d="M98.9979 127.383V97.8213H112.469C115.174 97.8213 117.51 98.2578 119.479 99.1308C121.447 100.004 122.962 101.262 124.015 102.914C125.068 104.557 125.598 106.5 125.598 108.725C125.598 110.95 125.068 112.944 124.015 114.553C122.962 116.163 121.447 117.386 119.479 118.251C117.51 119.115 115.174 119.535 112.469 119.535H103.602L107.36 115.983V127.383H98.9979ZM107.36 116.95L103.602 113.064H111.964C113.71 113.064 115.02 112.688 115.893 111.926C116.766 111.164 117.202 110.094 117.202 108.716C117.202 107.339 116.766 106.346 115.893 105.567C115.02 104.797 113.71 104.403 111.964 104.403H103.602L107.36 100.56V116.95ZM117.245 127.383L109.893 116.616H118.803L126.197 127.383H117.245Z" fill="#191919"/>
<path d="M130.254 127.383V97.8213H144.23C147.466 97.8213 150.324 98.4289 152.806 99.6357C155.28 100.851 157.223 102.554 158.618 104.745C160.013 106.945 160.706 109.547 160.706 112.559C160.706 115.572 160.013 118.225 158.618 120.433C157.223 122.641 155.288 124.353 152.806 125.568C150.324 126.784 147.474 127.383 144.23 127.383H130.254ZM138.616 120.707H143.811C145.531 120.707 147.012 120.382 148.27 119.74C149.528 119.098 150.504 118.157 151.206 116.933C151.908 115.709 152.258 114.262 152.258 112.602C152.258 110.942 151.908 109.427 151.206 108.229C150.504 107.03 149.52 106.106 148.27 105.464C147.021 104.822 145.531 104.488 143.811 104.488H138.616V120.707Z" fill="#191919"/>
<path d="M161.125 127.383L174.177 97.8213H182.411L195.505 127.383H186.801L176.582 101.912H179.877L169.658 127.383H161.125ZM168.263 121.597L170.42 115.469H184.867L187.024 121.597H168.272H168.263Z" fill="#191919"/>
<path d="M206.272 127.383H197.91V97.8211H206.272V127.383ZM218.229 115.846H205.639V108.922H218.229V115.846ZM217.638 97.8125H226V127.374H217.638V97.8125Z" fill="#191919"/>
</svg>
