<svg width="17" height="17" viewBox="0 0 17 17" fill="none" xmlns="http://www.w3.org/2000/svg">
<g clip-path="url(#clip0_406_752)">
<path d="M1.56668 16.5H4.05868C4.37012 16.4997 4.66585 16.3633 4.86829 16.1266L5.18827 15.7533C5.33979 15.5524 5.57663 15.434 5.82828 15.4333H10.9053C11.2416 15.4235 11.5611 15.2841 11.7971 15.0442L15.1267 11.6576C15.53 11.2503 15.5414 10.5977 15.1526 10.1765C14.7637 9.75531 14.1123 9.71469 13.6741 10.0843L11.5048 11.8989C11.2923 11.6047 10.9507 11.4312 10.5877 11.4333H7.60267C7.54737 11.4353 7.49312 11.418 7.44908 11.3845C7.06784 11.0711 6.58956 10.8999 6.09601 10.9C4.81579 10.8639 3.58154 11.3785 2.70614 12.3134C2.54614 12.4733 2.36586 12.6581 2.17067 12.8616L0.778152 14.3878C0.599156 14.5842 0.499974 14.8404 0.5 15.1061V15.4333C0.5 16.0224 0.977567 16.5 1.56668 16.5ZM1.03334 15.1061C1.03344 14.9733 1.08308 14.8453 1.17255 14.7472L2.55921 13.2245C2.74587 13.029 2.92348 12.8477 3.08213 12.6891C3.86042 11.858 4.95786 11.4007 6.09601 11.4333C6.46592 11.4313 6.8247 11.5597 7.10933 11.796C7.24909 11.9082 7.42344 11.9685 7.60267 11.9667H10.5877C10.8421 11.9622 11.0695 12.1246 11.1477 12.3667C11.15 12.3805 11.1532 12.3941 11.1573 12.4075C11.1616 12.429 11.1643 12.4507 11.1653 12.4726C11.173 12.6188 11.1203 12.7618 11.0194 12.8679C10.9185 12.9741 10.7785 13.0341 10.632 13.0339H7.43013C7.28287 13.0339 7.16348 13.1533 7.16348 13.3006C7.16348 13.4478 7.28287 13.5672 7.43013 13.5672H10.6315C10.9238 13.5676 11.2036 13.4479 11.4052 13.2362C11.6069 13.0245 11.7128 12.7392 11.6981 12.4472V12.4349L14.0181 10.4933C14.2382 10.3081 14.5651 10.3287 14.7602 10.54C14.9554 10.7513 14.95 11.0787 14.748 11.2835L11.4189 14.6701C11.2814 14.8104 11.0953 14.8927 10.8989 14.9H5.82933C5.41564 14.8996 5.02526 15.0915 4.77307 15.4195L4.46347 15.78C4.36227 15.8983 4.21437 15.9665 4.05868 15.9667H1.56668C1.27212 15.9667 1.03334 15.7279 1.03334 15.4333V15.1061Z" fill="#12AF98"/>
<path d="M15.7001 1.30001H15.1667C14.8517 1.30069 14.5664 1.4862 14.4379 1.77388L9.6798 0.538938C9.22908 0.430307 8.75383 0.552376 8.41127 0.864805L7.29792 1.87813C6.48187 2.03324 5.83074 2.6492 5.63061 3.45542C5.43049 4.26163 5.71796 5.11058 6.36673 5.62932V9.03331C6.36759 9.17467 6.42334 9.31015 6.5222 9.41117L7.3222 10.2112C7.53106 10.4194 7.86906 10.4194 8.07795 10.2112L8.88327 9.40585C8.97925 9.30554 9.033 9.17215 9.0334 9.03331V5.63066C9.0582 5.61066 9.0814 5.58799 9.10539 5.56667H11.5294C11.5853 5.56444 11.6402 5.58158 11.6849 5.6152C12.0655 5.92839 12.5431 6.09975 13.0361 6.10001H13.5667C13.912 6.0997 14.2436 5.96482 14.491 5.72402C14.6364 5.95742 14.8918 6.09951 15.1667 6.10001H15.7001C16.1419 6.10001 16.5001 5.74184 16.5001 5.30002V2.10001C16.5001 1.65819 16.1419 1.30001 15.7001 1.30001ZM6.10007 3.96666C6.10303 3.17403 6.68474 2.50254 7.46886 2.38666C7.54521 2.37328 7.62256 2.36659 7.70006 2.36666C8.37633 2.36958 8.97818 2.79618 9.20486 3.43334H8.50273C8.21007 3.43214 7.92984 3.55153 7.72801 3.76346C7.52618 3.9754 7.42057 4.26111 7.43605 4.55335C7.46758 4.98617 7.75486 5.3582 8.16566 5.49815C7.68064 5.64567 7.15439 5.5546 6.74713 5.25267C6.3399 4.95071 6.09983 4.47364 6.10007 3.96666ZM7.70006 9.83334L6.90006 9.03334V5.94293C7.07106 6.01212 7.25034 6.05873 7.4334 6.08159V7.96666C7.4334 8.11393 7.5528 8.23332 7.70006 8.23332C7.84733 8.23332 7.96672 8.11393 7.96672 7.96666V6.08159C8.14968 6.05933 8.32896 6.01335 8.50006 5.9448V9.03334L7.70006 9.83334ZM14.3667 4.76668C14.3667 5.2085 14.0086 5.56667 13.5667 5.56667H13.0361C12.6667 5.56822 12.3085 5.43975 12.0244 5.20375C11.8841 5.09136 11.7091 5.03113 11.5294 5.03336H8.54541C8.25028 5.04131 7.99892 4.8204 7.96887 4.52669C7.96068 4.38045 8.01336 4.23735 8.11435 4.13127C8.21537 4.02521 8.35573 3.96563 8.50218 3.96668H11.7022C11.8495 3.96668 11.9688 3.84729 11.9688 3.70003C11.9688 3.55276 11.8495 3.43337 11.7022 3.43337H9.76245C9.55388 2.63571 8.90626 2.02841 8.09684 1.87151L8.77044 1.25818C8.98088 1.06569 9.27289 0.989708 9.55044 1.05524L14.3667 2.30588V4.76668ZM15.9667 5.29999C15.9667 5.44726 15.8473 5.56665 15.7001 5.56665H15.1667C15.0195 5.56665 14.9001 5.44726 14.9001 5.29999V2.10001C14.9001 1.95274 15.0195 1.83335 15.1667 1.83335H15.7001C15.8473 1.83335 15.9667 1.95274 15.9667 2.10001V5.29999Z" fill="#12AF98"/>
</g>
<defs>
<clipPath id="clip0_406_752">
<rect width="16" height="16" fill="white" transform="translate(0.5 0.5)"/>
</clipPath>
</defs>
</svg>
