<svg width="25" height="25" viewBox="0 0 25 25" fill="none" xmlns="http://www.w3.org/2000/svg">
<path d="M3.125 9.375V10.5469C3.12534 10.8576 3.24892 11.1554 3.46861 11.3751C3.68831 11.5948 3.98618 11.7184 4.29688 11.7188H18.3594C18.6701 11.7184 18.9679 11.5948 19.1876 11.3751C19.4073 11.1554 19.5309 10.8576 19.5312 10.5469V9.375H3.125Z" fill="#B3B3B3"/>
<path d="M19.5312 8.59375V7.42188C19.5312 7.31827 19.4901 7.21892 19.4168 7.14566C19.3436 7.0724 19.2442 7.03125 19.1406 7.03125H3.51562C3.41202 7.03125 3.31267 7.0724 3.23941 7.14566C3.16616 7.21892 3.125 7.31827 3.125 7.42188V8.59375H19.5312Z" fill="#B3B3B3"/>
<path d="M11.3281 6.25C11.2245 6.25 11.1252 6.20885 11.0519 6.13559C10.9787 6.06233 10.9375 5.96298 10.9375 5.85938V1.95312C10.9375 1.84952 10.9787 1.75017 11.0519 1.67691C11.1252 1.60366 11.2245 1.5625 11.3281 1.5625C11.4317 1.5625 11.5311 1.60366 11.6043 1.67691C11.6776 1.75017 11.7188 1.84952 11.7188 1.95312V5.85938C11.7188 5.96298 11.6776 6.06233 11.6043 6.13559C11.5311 6.20885 11.4317 6.25 11.3281 6.25Z" fill="#B3B3B3"/>
<path d="M8.20312 5.46875C8.09952 5.46875 8.00017 5.42759 7.92691 5.35434C7.85365 5.28108 7.8125 5.18173 7.8125 5.07812V2.73438C7.8125 2.63077 7.85365 2.53142 7.92691 2.45816C8.00017 2.38491 8.09952 2.34375 8.20312 2.34375C8.30673 2.34375 8.40608 2.38491 8.47934 2.45816C8.5526 2.53142 8.59375 2.63077 8.59375 2.73438V5.07812C8.59375 5.18173 8.5526 5.28108 8.47934 5.35434C8.40608 5.42759 8.30673 5.46875 8.20312 5.46875Z" fill="#B3B3B3"/>
<path d="M14.4531 5.46875C14.3495 5.46875 14.2502 5.42759 14.1769 5.35434C14.1037 5.28108 14.0625 5.18173 14.0625 5.07812V2.73438C14.0625 2.63077 14.1037 2.53142 14.1769 2.45816C14.2502 2.38491 14.3495 2.34375 14.4531 2.34375C14.5567 2.34375 14.6561 2.38491 14.7293 2.45816C14.8026 2.53142 14.8438 2.63077 14.8438 2.73438V5.07812C14.8438 5.18173 14.8026 5.28108 14.7293 5.35434C14.6561 5.42759 14.5567 5.46875 14.4531 5.46875Z" fill="#B3B3B3"/>
<path d="M6.81544 15.6662L5.36927 14.9433L4.64638 13.4971C4.61032 13.4366 4.55916 13.3865 4.49791 13.3517C4.43666 13.3169 4.36742 13.2986 4.29697 13.2986C4.22651 13.2986 4.15727 13.3169 4.09602 13.3517C4.03477 13.3865 3.98361 13.4366 3.94755 13.4971L3.22466 14.9433L1.77849 15.6662C1.71359 15.6986 1.65901 15.7485 1.62086 15.8102C1.58271 15.8719 1.5625 15.9431 1.5625 16.0156C1.5625 16.0882 1.58271 16.1593 1.62086 16.221C1.65901 16.2827 1.71359 16.3326 1.77849 16.365L3.22466 17.0879L3.94755 18.5341C3.97999 18.599 4.02986 18.6536 4.09157 18.6917C4.15329 18.7299 4.22441 18.7501 4.29697 18.7501C4.36952 18.7501 4.44064 18.7299 4.50236 18.6917C4.56407 18.6536 4.61394 18.599 4.64638 18.5341L5.36927 17.0879L6.81544 16.365C6.88034 16.3326 6.93493 16.2827 6.97307 16.221C7.01122 16.1593 7.03143 16.0882 7.03143 16.0156C7.03143 15.9431 7.01122 15.8719 6.97307 15.8102C6.93493 15.7485 6.88034 15.6986 6.81544 15.6662Z" fill="#B3B3B3"/>
<path d="M23.2217 3.94746L21.7755 3.22457L21.0526 1.77839C21.0166 1.71787 20.9654 1.66775 20.9042 1.63294C20.8429 1.59813 20.7737 1.57983 20.7032 1.57983C20.6328 1.57983 20.5635 1.59813 20.5023 1.63294C20.441 1.66775 20.3899 1.71787 20.3538 1.77839L19.6309 3.22457L18.1847 3.94746C18.1198 3.97989 18.0653 4.02976 18.0271 4.09148C17.989 4.1532 17.9688 4.22432 17.9688 4.29687C17.9688 4.36943 17.989 4.44055 18.0271 4.50226C18.0653 4.56398 18.1198 4.61385 18.1847 4.64628L19.6309 5.36918L20.3538 6.81535C20.3862 6.88025 20.4361 6.93483 20.4978 6.97298C20.5595 7.01113 20.6307 7.03134 20.7032 7.03134C20.7758 7.03134 20.8469 7.01113 20.9086 6.97298C20.9703 6.93483 21.0202 6.88025 21.0526 6.81535L21.7755 5.36918L23.2217 4.64628C23.2866 4.61385 23.3412 4.56398 23.3793 4.50226C23.4175 4.44055 23.4377 4.36943 23.4377 4.29687C23.4377 4.22432 23.4175 4.1532 23.3793 4.09148C23.3412 4.02976 23.2866 3.97989 23.2217 3.94746Z" fill="#B3B3B3"/>
<path d="M10.1562 12.5V22.2656C10.1563 22.5764 10.2797 22.8745 10.4995 23.0943C10.7193 23.314 11.0173 23.4375 11.3281 23.4375C11.6389 23.4375 11.937 23.314 12.1568 23.0943C12.3765 22.8745 12.5 22.5764 12.5 22.2656V12.5H10.1562Z" fill="#B3B3B3"/>
</svg>
