<svg width="32" height="32" viewBox="0 0 32 32" fill="none" xmlns="http://www.w3.org/2000/svg">
<circle cx="16" cy="16" r="16" fill="url(#paint0_linear_2583_5251)" fill-opacity="0.15"/>
<g clip-path="url(#clip0_2583_5251)">
<path d="M23.5312 8H8.46875C8.20987 8 8 8.20987 8 8.46875V12.2344C8 12.4932 8.20987 12.7031 8.46875 12.7031H10.8242V23.5312C10.8242 23.7901 11.0341 24 11.293 24H20.707C20.9659 24 21.1758 23.7901 21.1758 23.5312V12.7031H23.5312C23.7901 12.7031 24 12.4932 24 12.2344V8.46875C24 8.20987 23.7901 8 23.5312 8ZM20.2383 23.0625H11.7617V10.8203H12.707V20.694C12.707 20.9529 12.9169 21.1628 13.1758 21.1628C13.4393 21.1628 13.6536 21.3807 13.6536 21.6484C13.6536 21.9073 13.8635 22.1172 14.1224 22.1172H17.8776C18.1365 22.1172 18.3464 21.9073 18.3464 21.6484C18.3464 21.3807 18.5607 21.1628 18.8242 21.1628C19.0831 21.1628 19.293 20.9529 19.293 20.694V10.8203H20.2383V23.0625ZM13.6445 20.3055V10.8203H18.3555V20.3055C17.9506 20.4488 17.6295 20.7722 17.4877 21.1797H14.5122C14.3705 20.7722 14.0494 20.4488 13.6445 20.3055ZM23.0625 11.7656H21.1758V10.8203H21.6484C21.9073 10.8203 22.1172 10.6104 22.1172 10.3516C22.1172 10.0927 21.9073 9.88281 21.6484 9.88281H10.3516C10.0927 9.88281 9.88281 10.0927 9.88281 10.3516C9.88281 10.6104 10.0927 10.8203 10.3516 10.8203H10.8242V11.7656H8.9375V8.9375H23.0625V11.7656Z" fill="url(#paint1_linear_2583_5251)"/>
<path d="M16 17.4102C16.7776 17.4102 17.4102 16.7776 17.4102 16C17.4102 15.2224 16.7776 14.5898 16 14.5898C15.2224 14.5898 14.5898 15.2224 14.5898 16C14.5898 16.7776 15.2224 17.4102 16 17.4102ZM16 15.5273C16.2606 15.5273 16.4727 15.7394 16.4727 16C16.4727 16.2606 16.2606 16.4727 16 16.4727C15.7394 16.4727 15.5273 16.2606 15.5273 16C15.5273 15.7394 15.7394 15.5273 16 15.5273Z" fill="url(#paint2_linear_2583_5251)"/>
<path d="M16.0004 18.3555C15.7552 18.3555 15.5203 18.5711 15.5316 18.8242C15.543 19.0782 15.7376 19.293 16.0004 19.293C16.2456 19.293 16.4805 19.0774 16.4691 18.8242C16.4578 18.5703 16.2632 18.3555 16.0004 18.3555Z" fill="url(#paint3_linear_2583_5251)"/>
<path d="M16.0004 13.6445C16.2456 13.6445 16.4805 13.4289 16.4691 13.1758C16.4578 12.9218 16.2632 12.707 16.0004 12.707C15.7552 12.707 15.5203 12.9226 15.5316 13.1758C15.543 13.4297 15.7376 13.6445 16.0004 13.6445Z" fill="url(#paint4_linear_2583_5251)"/>
</g>
<defs>
<linearGradient id="paint0_linear_2583_5251" x1="5.96046e-08" y1="32" x2="32.3897" y2="31.4621" gradientUnits="userSpaceOnUse">
<stop stop-color="#3366CC"/>
<stop offset="1" stop-color="#0099FF"/>
</linearGradient>
<linearGradient id="paint1_linear_2583_5251" x1="8" y1="24" x2="24.1948" y2="23.731" gradientUnits="userSpaceOnUse">
<stop stop-color="#3366CC"/>
<stop offset="1" stop-color="#0099FF"/>
</linearGradient>
<linearGradient id="paint2_linear_2583_5251" x1="14.5898" y1="17.4102" x2="17.4445" y2="17.3627" gradientUnits="userSpaceOnUse">
<stop stop-color="#3366CC"/>
<stop offset="1" stop-color="#0099FF"/>
</linearGradient>
<linearGradient id="paint3_linear_2583_5251" x1="15.5313" y1="19.293" x2="16.481" y2="19.2772" gradientUnits="userSpaceOnUse">
<stop stop-color="#3366CC"/>
<stop offset="1" stop-color="#0099FF"/>
</linearGradient>
<linearGradient id="paint4_linear_2583_5251" x1="15.5313" y1="13.6445" x2="16.481" y2="13.6287" gradientUnits="userSpaceOnUse">
<stop stop-color="#3366CC"/>
<stop offset="1" stop-color="#0099FF"/>
</linearGradient>
<clipPath id="clip0_2583_5251">
<rect width="16" height="16" fill="white" transform="translate(8 8)"/>
</clipPath>
</defs>
</svg>
