<svg width="46" height="41" viewBox="0 0 46 41" fill="none" xmlns="http://www.w3.org/2000/svg">
<rect width="46" height="41" rx="10" fill="#F5F7FE"/>
<path d="M19.4358 25.2598H15.1584L13.1035 15.5308H16.5003L17.3809 21.5275L18.3035 15.5308H22.2035L23.1261 21.6953L24.0487 15.5308H27.4035L25.3487 25.2598H21.1551L20.2745 18.9695" fill="#FFDD12"/>
<path d="M19.4358 25.2598H15.1584L13.1035 15.5308H16.5003L17.3809 21.5275L18.3035 15.5308H22.2035L23.1261 21.6953L24.0487 15.5308H27.4035L25.3487 25.2598H21.1551L20.2745 18.9695" fill="#FFDD12"/>
<path d="M17.6319 24.505C18.0093 24.8405 18.5125 25.0921 19.0996 25.2599H19.4351L20.3157 18.9695L21.1964 25.2599H25.3899L27.4448 15.5728H24.0899L23.1673 21.6953L22.2867 15.5728H19.9383H18.3867L17.506 21.5695L16.6254 15.5728V21.4857C16.4996 22.8276 16.877 23.834 17.6319 24.505Z" fill="#FFC715"/>
<path d="M12.6 25.2179H12.0129L10 15.5308H10.5871" fill="#FFF315"/>
<path d="M14.1508 25.2179H13.6056L11.5508 15.5308H12.1379" fill="#FFDD12"/>
<path d="M30.1718 15.5308V21.6114C30.1718 21.9888 30.088 22.3243 29.9202 22.534C29.7525 22.7437 29.5428 22.8695 29.2912 22.8695C28.9976 22.8695 28.788 22.7437 28.6202 22.534C28.4525 22.3243 28.4105 21.9888 28.4105 21.5695V15.5308H27.6976L25.8105 24.505C26.146 24.7985 26.5654 25.0501 27.0686 25.1759C27.6557 25.3856 28.4105 25.4695 29.3331 25.4695C30.8847 25.4695 32.0589 25.134 32.8138 24.505C33.5686 23.834 33.946 22.8275 33.946 21.4437V15.5308" fill="black"/>
<path d="M24.7188 15.5308V21.4437C24.7188 22.1985 24.8026 22.7856 24.9284 23.205C25.0542 23.5824 25.2639 23.9598 25.5575 24.2533L27.4026 15.5308" fill="#FFA515"/>
<path d="M34.6582 16.3275H34.8259L34.8679 16.4114L34.9518 16.4533L35.0356 16.4114L35.0776 16.3694L35.0356 16.3275L34.9518 16.2856C34.8679 16.2856 34.8259 16.2436 34.784 16.2017L34.7421 16.0759L34.784 15.992L34.8679 15.9081C34.9098 15.9081 34.9518 15.8662 35.0356 15.8662C35.1195 15.8662 35.1614 15.8662 35.2034 15.9081C35.2453 15.9501 35.2872 15.992 35.2872 16.0759H35.1195L35.0776 15.992H34.9937H34.9518V16.034V16.0759L35.0356 16.1178C35.1195 16.1178 35.1614 16.1598 35.2034 16.1598L35.2872 16.2436L35.3292 16.3275L35.1614 16.4114L35.0776 16.4952L34.9098 16.5372C34.784 16.5372 34.7421 16.4952 34.7001 16.4533C34.6582 16.4114 34.6582 16.3694 34.6582 16.3275Z" fill="black"/>
<path d="M35.2871 15.8662H35.5387L35.6645 16.2856L35.7484 15.8662H36V16.5372H35.8323V16.034L35.7065 16.5372H35.5807L35.4549 16.034V16.5372H35.2871" fill="black"/>
<path d="M25.8105 24.505C26.146 24.7985 26.5654 25.0501 27.0686 25.1759C27.6557 25.3856 28.4105 25.4695 29.3331 25.4695C29.417 25.4695 29.4589 25.4695 29.5009 25.4695L31.5557 15.5308H30.1718V21.6114C30.1718 21.9888 30.088 22.3243 29.9202 22.534C29.7525 22.7437 29.5428 22.8695 29.2912 22.8695C28.9976 22.8695 28.788 22.7437 28.6202 22.534C28.4525 22.3243 28.4105 21.9888 28.4105 21.5695V15.5308H28.2009H27.6976L25.8105 24.505Z" fill="#44423E"/>
</svg>
