<svg width="38" height="72" viewBox="0 0 38 72" fill="none" xmlns="http://www.w3.org/2000/svg">
<path d="M24.9753 68.9218C23.5211 69.0827 20.5958 69.2445 19.133 69.2473C17.5644 69.2509 14.4316 69.052 12.8688 68.9218C7.55719 68.4819 3.38579 64.6766 3.38579 59.4395L2.91516 62.1918C2.91516 67.562 7.55719 71.2348 12.8688 71.6748C14.4316 71.8035 17.5644 72.003 19.133 72.0002C20.5958 71.9966 23.5211 71.8343 24.9753 71.6748C30.0988 71.1098 34.9283 67.562 34.9283 62.1918L34.4577 59.4395C34.4575 64.6766 30.0988 68.356 24.9753 68.9218Z" fill="#003D58"/>
<path d="M24.9753 3.07862C23.5211 2.91847 20.5958 2.75612 19.133 2.75394C17.5644 2.75034 14.4316 2.94925 12.8688 3.07862C7.55719 3.51784 3.38579 7.32378 3.38579 12.5608L2.91516 9.80847C2.91516 4.43831 7.55719 0.766123 12.8688 0.325498C14.4316 0.196748 17.5644 -0.00278309 19.133 2.94119e-05C20.5958 0.00362316 23.5211 0.165967 24.9753 0.325498C30.0988 0.891279 34.9283 4.43831 34.9283 9.80847L34.4577 12.5608C34.4575 7.32378 30.0988 3.64378 24.9753 3.07862Z" fill="#003D58"/>
<path d="M34.4576 61.1336C34.4576 66.3701 30.0987 70.0515 24.9754 70.6159C23.5212 70.7768 20.5959 70.9392 19.1331 70.9414C17.5645 70.9442 14.4316 70.7454 12.8688 70.6159C7.55727 70.1767 3.38586 66.3701 3.38586 61.1336V11.7403C3.38586 6.50387 7.67383 2.80449 12.8688 2.2573C14.3673 2.10137 16.6298 1.99121 18.8885 1.99121C21.1695 1.99121 23.4584 2.13715 24.9754 2.2573C30.3056 2.68152 34.4576 6.50371 34.4576 11.7403V61.1336Z" fill="#FFBF00"/>
<path d="M29.3849 31.3261C22.8446 28.6173 15.8549 28.8298 8.34894 31.1802C7.59581 27.6647 5.35488 21.8875 5.62456 18.4536C13.9888 14.8494 23.8014 14.8178 32.2066 18.3742C32.4363 21.8759 30.0452 27.347 29.3849 31.3261Z" fill="#003651"/>
<path d="M29.3849 47.1465C22.8446 49.856 15.8549 49.6441 8.34896 47.293C7.59583 50.8093 7.67802 53.2934 7.90114 57.2209C14.8327 61.3451 22.9646 61.3801 29.9291 57.3124C30.1202 53.3055 30.0452 51.1262 29.3849 47.1465Z" fill="#003651"/>
<path d="M24.9754 2.2573C23.4584 2.13715 21.1695 1.99121 18.8885 1.99121C16.6298 1.99121 14.3674 2.10137 12.8688 2.2573C7.67383 2.80449 3.38586 6.50371 3.38586 11.7403V61.1336C3.38586 66.3701 7.55727 70.1767 12.8688 70.6159C14.4316 70.7454 17.5645 70.9442 19.1331 70.9414C20.5959 70.9392 23.5212 70.7768 24.9754 70.6159C30.0988 70.0515 34.4576 66.3701 34.4576 61.1336V11.7403C34.4576 6.50371 30.3056 2.68152 24.9754 2.2573ZM33.4691 59.5636C33.4691 64.4689 29.3879 67.9143 24.5898 68.4436C23.2287 68.5937 20.4885 68.7454 19.1187 68.7482C17.6502 68.7504 14.717 68.5645 13.2535 68.4436C8.27961 68.0323 4.37415 64.4689 4.37415 59.5636V13.3139C4.37415 8.40996 8.38961 4.94527 13.2535 4.43387C14.6554 4.2873 16.7748 4.18418 18.8898 4.18418C21.0263 4.18418 23.1705 4.32152 24.5898 4.43387C29.5816 4.83152 33.4691 8.40996 33.4691 13.3139V59.5636Z" fill="#FFBF00"/>
<path opacity="0.68" d="M8.73031 21.2782C16.0653 18.116 24.5133 17.704 32.1488 20.0479C32.2153 19.4549 32.2403 18.8928 32.2067 18.3742C23.8017 14.8179 13.9891 14.8493 5.62468 18.4535C5.355 21.8874 7.59594 27.6646 8.34906 31.1801C9.08359 30.9492 9.81531 30.7403 10.5406 30.5507C9.62859 27.3845 8.53781 23.7317 8.73031 21.2782Z" fill="#115273"/>
<path d="M9.92552 26.6063C8.96849 26.6063 8.02224 26.5806 7.09021 26.5341C7.5788 28.2378 8.06724 29.8664 8.34912 31.1803C15.8551 28.83 22.8446 28.6175 29.3851 31.3263C29.9072 28.1791 31.5108 24.0984 32.0458 20.7969C27.5446 24.2767 19.3241 26.6063 9.92552 26.6063Z" fill="#003651"/>
<path opacity="0.68" d="M28.8098 53.4152C22.5506 58.028 15.2434 57.9872 9.01499 53.3108C8.69515 52.0333 8.30828 50.7838 7.95781 49.5635C7.64312 52.0133 7.72812 54.1885 7.9014 57.2211C14.833 61.3454 22.9648 61.3804 29.9294 57.3127C30.0689 54.3772 30.0645 52.4203 29.7942 50.0199C29.4944 51.0843 29.1539 52.1994 28.8098 53.4152Z" fill="#115273"/>
<path d="M19.244 52.8657C23.0413 52.8657 26.6727 53.2148 30.0194 53.8513C30.0072 51.6948 29.8291 49.8287 29.385 47.1465C22.8447 49.856 15.855 49.6441 8.34911 47.293C7.82333 49.7471 7.70396 51.7005 7.75755 53.9915C11.2974 53.267 15.1769 52.8657 19.244 52.8657Z" fill="#003651"/>
<path d="M3.38586 38.0505V45.837C8.50868 45.4865 14.6935 44.7332 21.3112 43.5916C26.0398 42.7762 30.4951 41.8479 34.4577 40.8779V32.5293C30.0438 32.9384 25.0327 33.6023 19.7448 34.5149C13.6885 35.5579 8.08305 36.7874 3.38586 38.0505Z" fill="#FFBF00"/>
<path d="M33.4326 54.7711L30.8912 47.1107V31.7368L33.4326 19.1924V54.7711Z" fill="#003651"/>
<path d="M4.38501 54.7711L6.92704 47.1107V31.7368L4.38501 19.1924V54.7711Z" fill="#003651"/>
<path d="M5.78126 18.3886C5.79564 18.2821 5.81705 18.1697 5.84845 18.051L8.09876 9.1602C8.49142 7.70238 9.76892 5.90645 11.3189 4.80566C11.1136 4.86426 10.9091 4.92723 10.7094 4.99582C9.34048 6.12457 8.26392 7.73457 7.89423 9.10644L5.6447 17.9972C5.53455 18.4071 5.52173 18.7639 5.60392 19.0622C5.60392 18.8527 5.6097 18.6494 5.6247 18.4536C5.67689 18.4308 5.72892 18.4114 5.78126 18.3886Z" fill="#FFBF00"/>
<path d="M32.2081 19.3427C32.4013 18.9945 32.4256 18.5438 32.2797 17.9973L30.0288 9.10508C29.6533 7.7132 28.5497 6.07523 27.152 4.9443C26.9545 4.87992 26.755 4.82117 26.5519 4.76758C28.1261 5.86414 29.4266 7.68445 29.8242 9.15852L32.0738 18.0501C32.1023 18.153 32.1203 18.2504 32.1353 18.344C32.1581 18.354 32.1831 18.3626 32.2067 18.3734C32.2267 18.6824 32.2259 19.0065 32.2081 19.3427Z" fill="#FFBF00"/>
<path d="M11.1442 4.68744C11.6728 5.16525 10.3073 5.76681 8.4906 7.02572C6.6931 8.24384 5.90717 9.03634 5.62389 8.12009C5.37357 7.28103 5.76045 5.41713 7.35201 4.62025C8.91623 3.77619 10.6386 4.16884 11.1442 4.68744Z" fill="#A8C6E8"/>
<path opacity="0.42" d="M8.52426 5.88672C8.52426 6.03625 8.01785 7.64984 7.39348 7.64984C6.76973 7.64984 6.2627 6.03609 6.2627 5.88672C6.2627 5.73797 6.76973 5.61719 7.39348 5.61719C8.01785 5.61703 8.52426 5.73781 8.52426 5.88672Z" fill="#003D58"/>
<path d="M8.52426 5.74316C8.52426 5.89207 8.01785 6.01207 7.39348 6.01207C6.76973 6.01207 6.2627 5.89191 6.2627 5.74316C6.2627 5.59301 6.76973 5.47363 7.39348 5.47363C8.01785 5.47363 8.52426 5.59301 8.52426 5.74316Z" fill="#A8C6E8"/>
<path d="M11.1442 4.68723C11.0842 4.62645 11.0076 4.56785 10.9181 4.5127C11.0011 4.96613 9.75434 5.56488 8.15575 6.67285C6.84185 7.56254 6.07013 8.22129 5.63794 8.15691C5.93263 9.00816 6.72013 8.22488 8.49044 7.02535C10.3073 5.7666 11.6728 5.16504 11.1442 4.68723Z" fill="#A8C6E8"/>
<path d="M7.24309 4.91197C8.88247 4.0265 10.6864 4.43775 11.2164 4.98134C11.2258 4.98994 11.2293 4.99775 11.2372 5.00572C11.2779 4.89134 11.2529 4.78681 11.1442 4.68744C10.6386 4.16884 8.91606 3.77619 7.35184 4.62025C6.58934 5.0015 6.10575 5.62806 5.83325 6.27041C6.13513 5.73384 6.59153 5.23744 7.24309 4.91197Z" fill="#A8C6E8"/>
<path d="M27.0582 4.68744C26.529 5.16525 27.8937 5.76681 29.7104 7.02572C31.5079 8.24384 32.2954 9.03634 32.5779 8.12009C32.8274 7.28103 32.4419 5.41713 30.8498 4.62025C29.2849 3.77619 27.5632 4.16884 27.0582 4.68744Z" fill="#A8C6E8"/>
<path opacity="0.42" d="M29.6782 5.88672C29.6782 6.03625 30.1846 7.64984 30.8084 7.64984C31.4328 7.64984 31.9392 6.03609 31.9392 5.88672C31.9392 5.73797 31.4328 5.61719 30.8084 5.61719C30.1846 5.61703 29.6782 5.73781 29.6782 5.88672Z" fill="#003D58"/>
<path d="M29.6782 5.74316C29.6782 5.89207 30.1846 6.01207 30.8084 6.01207C31.4328 6.01207 31.9392 5.89191 31.9392 5.74316C31.9392 5.59301 31.4328 5.47363 30.8084 5.47363C30.1846 5.47363 29.6782 5.59301 29.6782 5.74316Z" fill="#A8C6E8"/>
<path d="M27.0582 4.68723C27.1168 4.62645 27.1927 4.56785 27.2835 4.5127C27.2012 4.96613 28.4465 5.56488 30.0458 6.67285C31.3591 7.56254 32.1308 8.22129 32.5635 8.15691C32.2682 9.00816 31.4805 8.22488 29.7104 7.02535C27.8937 5.7666 26.529 5.16504 27.0582 4.68723Z" fill="#A8C6E8"/>
<path d="M30.9584 4.91197C29.319 4.0265 27.5151 4.43775 26.9844 4.98134C26.9758 4.98994 26.9722 4.99775 26.9644 5.00572C26.9236 4.89134 26.9479 4.78681 27.0581 4.68744C27.5631 4.16884 29.2848 3.77619 30.8498 4.62025C31.6123 5.0015 32.0958 5.62806 32.3676 6.27041C32.0656 5.73384 31.6094 5.23744 30.9584 4.91197Z" fill="#A8C6E8"/>
<path d="M27.0974 68.004C26.727 67.7379 28.4078 66.7179 29.6859 65.7939C30.8912 64.9326 30.6909 64.7175 31.2331 65.2431C31.6821 65.7673 32.3445 66.6821 30.8146 67.3539C29.2882 68.0728 27.3262 68.3509 27.0974 68.004Z" fill="#A9BEE2"/>
<path opacity="0.42" d="M29.6535 66.605C29.6865 66.4848 30.0283 65.3341 30.3502 65.3855C30.6707 65.4348 31.4652 66.4319 31.5425 66.5092C31.5904 66.598 31.1821 66.673 30.6341 66.7095C30.0847 66.7459 29.6485 66.713 29.6535 66.605Z" fill="#003D58"/>
<path opacity="0.7" d="M29.6517 66.7067C29.6574 66.6001 30.0709 66.4722 30.5779 66.4528C31.0851 66.4314 31.5363 66.5094 31.5829 66.5959C31.6315 66.6845 31.2138 66.7625 30.6531 66.8041C30.0929 66.8448 29.6467 66.8155 29.6517 66.7067Z" fill="#A8C6E8"/>
<path d="M27.0969 68.0041C27.1333 68.0413 27.1884 68.0713 27.2598 68.0957C27.2992 67.7316 28.7848 66.8368 29.9292 66.0336C30.8483 65.3957 30.9484 65.1446 31.2116 65.2211C30.6937 64.7283 30.8739 64.9444 29.6851 65.7941C28.4072 66.718 26.7262 67.738 27.0969 68.0041Z" fill="#A8C6E8"/>
<path d="M30.8762 67.1553C29.3484 67.8728 27.3399 68.1401 27.1276 67.7618C27.1218 67.7568 27.1218 67.7512 27.1168 67.7468C27.0402 67.8584 27.0245 67.9457 27.0968 68.0043C27.3257 68.3512 29.2876 68.0731 30.814 67.3542C31.5313 67.0273 31.7832 66.654 31.7674 66.292C31.7209 66.5939 31.457 66.8907 30.8762 67.1553Z" fill="#A8C6E8"/>
<path d="M10.7513 68.004C11.1212 67.7379 9.44022 66.7179 8.16209 65.7939C6.95756 64.9326 7.15725 64.7175 6.61506 65.2431C6.16663 65.7673 5.50288 66.6821 7.03428 67.3539C8.5596 68.0728 10.5208 68.3509 10.7513 68.004Z" fill="#A9BEE2"/>
<path opacity="0.42" d="M8.19388 66.605C8.16169 66.4848 7.81904 65.3341 7.49794 65.3855C7.17826 65.4348 6.38138 66.4319 6.3056 66.5092C6.25841 66.598 6.66544 66.673 7.21404 66.7095C7.76185 66.7459 8.19888 66.713 8.19388 66.605Z" fill="#003D58"/>
<path opacity="0.7" d="M8.19386 66.7067C8.19104 66.6001 7.7762 66.4722 7.26979 66.4528C6.76261 66.4314 6.31058 66.5094 6.26339 66.5959C6.21542 66.6845 6.63386 66.7625 7.19464 66.8041C7.7548 66.8448 8.20042 66.8155 8.19386 66.7067Z" fill="#A8C6E8"/>
<path d="M10.7511 68.0041C10.7153 68.0413 10.6587 68.0713 10.5879 68.0957C10.5465 67.7316 9.06153 66.8368 7.91856 66.0336C6.9995 65.3957 6.89856 65.1446 6.63684 65.2211C7.15403 64.7283 6.97372 64.9444 8.16168 65.7941C9.43981 66.718 11.1207 67.738 10.7511 68.0041Z" fill="#A8C6E8"/>
<path d="M6.97009 67.1553C8.49853 67.8728 10.5063 68.1401 10.7195 67.7618C10.7252 67.7568 10.7252 67.7512 10.7302 67.7468C10.8082 67.8584 10.824 67.9457 10.751 68.0043C10.5207 68.3512 8.55947 68.0731 7.03384 67.3542C6.3165 67.0273 6.064 66.654 6.079 66.292C6.12603 66.5939 6.39071 66.8907 6.97009 67.1553Z" fill="#A8C6E8"/>
<path d="M30.5164 57.6494L30.4306 57.7044C30.4026 57.7208 27.634 59.4611 25.3365 60.2507C23.0276 61.0439 20.7181 61.0433 19.1761 61.041H19.0351C17.5067 61.0424 15.2006 61.0438 12.8925 60.2507C10.5944 59.461 7.82701 57.7208 7.79982 57.7044L7.71326 57.6494L7.65529 57.7338C7.56654 57.8625 5.53029 60.856 5.05811 62.9524C5.09889 63.0454 5.14107 63.1347 5.18482 63.2257C5.20842 63.2107 5.22701 63.1863 5.23139 63.1563C5.58607 61.2858 7.42654 58.4593 7.77342 57.9377C8.26482 58.2402 10.7345 59.7322 12.8239 60.4519C15.1664 61.2566 17.4923 61.2536 19.0531 61.2522H19.194C20.739 61.255 23.0629 61.2558 25.4054 60.4519C27.4962 59.7322 29.9645 58.2402 30.4559 57.9377C30.7742 58.4147 32.3406 60.821 32.8764 62.6591C32.9186 62.5525 32.9594 62.4452 32.9979 62.3358C32.3306 60.3146 30.654 57.8511 30.5739 57.7338L30.5164 57.6494Z" fill="#FFBF00"/>
<path d="M4.38084 40.0311L4.37646 39.3973L6.92428 39.1992V39.833L4.38084 40.0311Z" fill="#FFBF00"/>
<path d="M33.4377 40.0311L33.4397 39.3973L30.8899 39.1992V39.833L33.4377 40.0311Z" fill="#FFBF00"/>
<path d="M5.24769 16.0826C5.73551 16.5504 5.37363 17.0275 4.48019 17.2807C3.54097 17.5368 2.63472 17.8973 1.77941 18.3579C0.97113 18.8043 0.477537 18.8335 0.508319 17.9073C0.540506 16.9846 0.473318 16.5906 1.01332 16.0856C1.48457 15.6479 2.70566 15.2687 3.34644 15.2231C3.90863 15.1942 4.76191 15.6176 5.24769 16.0826Z" fill="#FFBF00"/>
<path d="M32.7524 16.0826C32.2654 16.5504 32.6266 17.0275 33.5207 17.2807C34.4591 17.5368 35.3654 17.8973 36.2201 18.3579C37.029 18.8043 37.5225 18.8335 37.4918 17.9073C37.4596 16.9846 37.5276 16.5906 36.9868 16.0856C36.5161 15.6479 35.2944 15.2687 34.6536 15.2231C34.0915 15.1942 33.2388 15.6176 32.7524 16.0826Z" fill="#FFBF00"/>
</svg>
